<svg width="60" height="60" viewBox="0 0 60 60" fill="none" xmlns="http://www.w3.org/2000/svg">
<g clip-path="url(#clip0_59_155)">
<path d="M39.6245 22.419C39.3669 22.0776 39.0384 21.879 38.639 21.8231L35.6106 21.3996L23.5634 19.7147C23.164 19.6588 22.7936 19.7597 22.4522 20.0173C22.1108 20.275 21.9122 20.6034 21.8563 21.0028L21.4328 24.0312C21.3769 24.4306 21.4778 24.801 21.7354 25.1424C21.993 25.4838 22.3215 25.6824 22.7209 25.7383L29.0108 26.618L19.4893 33.8029C19.1605 34.051 18.9667 34.3858 18.9077 34.8073C18.8488 35.2289 18.9433 35.604 19.1914 35.9328L21.0234 38.3606C21.2715 38.6893 21.6063 38.8832 22.0279 38.9422C22.4494 39.0011 22.8246 38.9066 23.1533 38.6585L32.6748 31.4735L31.7951 37.7634C31.7361 38.1849 31.8307 38.5601 32.0788 38.8889C32.3269 39.2176 32.6617 39.4115 33.0832 39.4704L36.1117 39.894C36.511 39.9498 36.8814 39.849 37.2228 39.5913C37.5642 39.3337 37.7628 39.0052 37.8187 38.6059L39.5036 26.5586L39.9272 23.5302C39.983 23.1308 39.8821 22.7604 39.6245 22.419ZM44.3852 18.8266C46.3795 21.4693 47.5674 24.398 47.9491 27.6126C48.3309 30.8271 47.8972 33.9277 46.6482 36.9142C45.3992 39.9007 43.4534 42.3911 40.8106 44.3853C38.1679 46.3796 35.2392 47.5675 32.0246 47.9492C28.81 48.3309 25.7095 47.8973 22.723 46.6483C19.7364 45.3993 17.2461 43.4535 15.2518 40.8107C13.2576 38.168 12.0697 35.2393 11.6879 32.0247C11.3062 28.8101 11.7399 25.7096 12.9889 22.7231C14.2379 19.7365 16.1837 17.2462 18.8265 15.2519C21.4692 13.2577 24.3979 12.0698 27.6125 11.688C30.8271 11.3063 33.9276 11.74 36.9141 12.989C39.9006 14.2379 42.391 16.1838 44.3852 18.8266Z" fill="url(#paint0_linear_59_155)"/>
</g>
<defs>
<linearGradient id="paint0_linear_59_155" x1="18.8265" y1="15.2519" x2="40.8106" y2="44.3853" gradientUnits="userSpaceOnUse">
<stop offset="1" stop-color="#1C365E"/>
</linearGradient>
<clipPath id="clip0_59_155">
<rect width="42.5803" height="42.5803" fill="white" transform="translate(0 25.6482) rotate(-37.0383)"/>
</clipPath>
</defs>
</svg>
