<svg width="20" height="20" viewBox="0 0 20 20" fill="none" xmlns="http://www.w3.org/2000/svg">
<path d="M11.525 15.8332C11.4005 15.8337 11.2775 15.8062 11.165 15.7528C11.0525 15.6995 10.9534 15.6216 10.875 15.5249L6.84997 10.5249C6.72741 10.3758 6.6604 10.1888 6.6604 9.99574C6.6604 9.80272 6.72741 9.61568 6.84997 9.46657L11.0166 4.46657C11.1581 4.29639 11.3613 4.18937 11.5817 4.16905C11.8021 4.14874 12.0215 4.21679 12.1916 4.35824C12.3618 4.49969 12.4688 4.70295 12.4892 4.9233C12.5095 5.14366 12.4414 5.36306 12.3 5.53324L8.57497 9.9999L12.175 14.4666C12.2769 14.5889 12.3416 14.7378 12.3615 14.8958C12.3814 15.0538 12.3556 15.2141 12.2873 15.3579C12.2189 15.5017 12.1107 15.6228 11.9757 15.7071C11.8406 15.7913 11.6842 15.8351 11.525 15.8332Z" fill="#F95520"/>
</svg>
