<svg width="48" height="48" viewBox="0 0 48 48" fill="none" xmlns="http://www.w3.org/2000/svg">
<path d="M37.95 39.9H10.05C7.8 39.9 6 38.1 6 35.85V34.65C6 32.4 7.8 30.6 10.05 30.6C10.65 30.6 11.1 30.15 11.1 29.55V21.9C11.1 14.85 16.8 9 24 9C31.2 9 36.9 14.85 36.9 21.9V29.55C36.9 30.15 37.35 30.6 37.95 30.6C40.2 30.6 42 32.4 42 34.65V35.85C42 38.1 40.2 39.9 37.95 39.9ZM24 12C18.6 12 14.1 16.5 14.1 21.9V29.55C14.1 31.8 12.3 33.6 10.05 33.6C9.45 33.6 9 34.05 9 34.65V35.85C9 36.45 9.45 36.9 10.05 36.9H37.95C38.55 36.9 39 36.45 39 35.85V34.65C39 34.05 38.55 33.6 37.95 33.6C35.7 33.6 33.9 31.8 33.9 29.55V21.9C33.9 16.5 29.4 12 24 12Z" fill="#F4E3C7"/>
<path d="M23.9999 45C20.3999 45 17.3999 42 17.3999 38.4C17.3999 37.5 17.9999 36.9 18.8999 36.9C19.7999 36.9 20.3999 37.5 20.3999 38.4C20.3999 40.35 22.0499 42 23.9999 42C25.9499 42 27.5999 40.35 27.5999 38.4C27.5999 37.5 28.1999 36.9 29.0999 36.9C29.9999 36.9 30.5999 37.5 30.5999 38.4C30.5999 42 27.5999 45 23.9999 45ZM23.9999 12C21.4499 12 19.4999 10.05 19.4999 7.5C19.4999 4.95 21.4499 3 23.9999 3C26.5499 3 28.4999 4.95 28.4999 7.5C28.4999 10.05 26.5499 12 23.9999 12ZM23.9999 6C23.0999 6 22.4999 6.6 22.4999 7.5C22.4999 8.4 23.0999 9 23.9999 9C24.8999 9 25.4999 8.4 25.4999 7.5C25.4999 6.6 24.8999 6 23.9999 6Z" fill="#F4E3C7"/>
</svg>
