<svg width="334" height="334" viewBox="0 0 334 334" fill="none" xmlns="http://www.w3.org/2000/svg">
<path d="M156.63 183.058L124.395 149.763L109.725 163.967L156.163 211.932L257.191 114.221L242.886 99.4464L156.63 183.058Z" fill="#586E90" fill-opacity="0.1"/>
<path d="M288.087 331.641L269.323 225.335L272.558 221.598C292.163 200.187 302.745 172.033 302.096 143.009C300.639 114.577 288.869 87.6497 268.989 67.2697C249.109 46.8897 222.483 34.4541 194.095 32.291C178.815 31.7948 163.591 34.3862 149.336 39.9102C135.08 45.4342 122.085 53.7771 111.129 64.4399C99.8676 74.6764 90.7972 87.0887 84.4653 100.928C78.1334 114.766 74.6714 129.745 74.2883 144.959L74.2535 147.109L45.6707 210.965L74.0406 223.611L72.9942 288.322L155.072 279.408L154.244 330.603L133.766 330.272L134.263 299.555L52.185 308.469L53.3439 236.796L19.6993 220.992L54.8688 142.494C55.4292 124.77 59.5251 107.336 66.9159 91.2169C74.3067 75.0975 84.8435 60.6171 97.9076 48.626C110.972 36.6348 126.3 27.3746 142.992 21.3889C159.684 15.4033 177.404 12.8129 195.111 13.7698C219.703 15.1156 243.439 23.2567 263.679 37.2875C283.92 51.3183 299.872 70.6888 309.76 93.2446C319.649 115.8 323.086 140.657 319.691 165.05C316.295 189.443 306.2 212.416 290.527 231.413L307.193 328.16L288.087 331.641Z" fill="#586E90" fill-opacity="0.1"/>
</svg>
