<svg width="364" height="364" viewBox="0 0 364 364" fill="none" xmlns="http://www.w3.org/2000/svg">
<mask id="mask0_40_168" style="mask-type:luminance" maskUnits="userSpaceOnUse" x="39" y="39" width="286" height="286">
<path d="M324.188 39.8125H39.8125V324.188H324.188V39.8125Z" fill="white"/>
</mask>
<g mask="url(#mask0_40_168)">
<mask id="mask1_40_168" style="mask-type:luminance" maskUnits="userSpaceOnUse" x="39" y="39" width="286" height="286">
<path d="M39.8125 39.8125H324.188V324.188H39.8125V39.8125Z" fill="white"/>
</mask>
<g mask="url(#mask1_40_168)">
<path fill-rule="evenodd" clip-rule="evenodd" d="M184.281 41.0353C183.176 39.194 180.507 39.194 179.404 41.0353L152.581 85.7504C152.229 86.3391 151.675 86.7802 151.022 86.9923C150.369 87.2047 149.661 87.1734 149.03 86.905L101.05 66.4926C99.0734 65.6537 96.915 67.2206 97.1041 69.3605L101.69 121.3C101.75 121.984 101.561 122.666 101.158 123.222C100.754 123.777 100.163 124.168 99.4943 124.322L48.6793 136.009C46.5878 136.493 45.7631 139.03 47.1722 140.649L81.4123 179.974C81.8633 180.491 82.1116 181.155 82.1116 181.841C82.1116 182.528 81.8633 183.191 81.4123 183.709L47.1736 223.034C45.7631 224.653 46.5878 227.191 48.6808 227.672L99.4943 239.361C100.163 239.515 100.754 239.906 101.158 240.461C101.561 241.016 101.75 241.699 101.69 242.383L97.1041 294.322C96.915 296.461 99.0749 298.031 101.05 297.189L149.031 276.778C149.663 276.509 150.37 276.478 151.023 276.69C151.676 276.902 152.23 277.344 152.583 277.932L179.402 322.646C180.507 324.489 183.176 324.489 184.281 322.646L211.1 277.932C211.453 277.344 212.007 276.902 212.66 276.69C213.313 276.478 214.02 276.509 214.652 276.778L262.633 297.189C264.608 298.031 266.768 296.461 266.579 294.322L261.993 242.383C261.933 241.699 262.122 241.016 262.526 240.461C262.929 239.906 263.52 239.515 264.189 239.361L315.005 227.672C317.095 227.191 317.92 224.653 316.512 223.034L282.271 183.709C281.82 183.191 281.572 182.528 281.572 181.841C281.572 181.155 281.82 180.492 282.271 179.974L316.512 140.649C317.92 139.03 317.095 136.491 315.005 136.011L264.189 124.322C263.52 124.168 262.929 123.777 262.526 123.222C262.122 122.666 261.933 121.984 261.993 121.3L266.579 69.3591C266.768 67.2206 264.608 65.6522 262.633 66.4926L214.652 86.905C214.02 87.1734 213.313 87.2047 212.66 86.9923C212.007 86.7802 211.453 86.3391 211.1 85.7504L184.281 41.0353ZM182 253.094C221.264 253.094 253.094 221.264 253.094 182C253.094 142.736 221.264 110.906 182 110.906C142.736 110.906 110.906 142.736 110.906 182C110.906 221.264 142.736 253.094 182 253.094Z" fill="#F4E3C7" fill-opacity="0.15"/>
</g>
</g>
</svg>
