<svg width="354" height="334" viewBox="0 0 354 334" fill="none" xmlns="http://www.w3.org/2000/svg">
<g clip-path="url(#clip0_40_189)">
<path d="M273.201 225.315C281.472 233.44 289.353 237.327 291.913 238.461L294.837 258.561C294.866 258.764 294.935 258.959 295.04 259.135C295.145 259.311 295.283 259.464 295.447 259.587C295.611 259.709 295.798 259.798 295.997 259.848C296.195 259.899 296.401 259.909 296.604 259.88C296.807 259.85 297.002 259.781 297.177 259.676C297.353 259.572 297.507 259.433 297.629 259.269C297.752 259.105 297.841 258.918 297.891 258.72C297.941 258.521 297.952 258.315 297.923 258.112L294.999 238.008C297.153 236.163 303.749 230.027 309.429 219.71C315.651 208.408 321.842 189.766 316.008 165.144C310.224 140.737 298.721 122.168 290.089 110.888C280.722 98.6472 272.823 92.2635 272.493 91.9992C272.324 91.8639 272.129 91.7653 271.92 91.7096C271.711 91.6539 271.492 91.6423 271.278 91.6756C271.065 91.7088 270.86 91.7862 270.678 91.9027C270.495 92.0193 270.339 92.1726 270.219 92.3527C269.984 92.7064 264.396 101.183 259.189 115.686C254.392 129.05 249.07 150.234 250.973 175.243C252.889 200.461 264.119 216.392 273.201 225.315ZM193.851 111.277C177.548 92.2135 158.831 80.9615 146 74.8783C132.075 68.2776 122.134 66.2155 121.718 66.1308C121.506 66.0877 121.287 66.0892 121.076 66.1353C120.864 66.1813 120.665 66.2708 120.49 66.3981C120.315 66.5255 120.168 66.6878 120.06 66.8748C119.951 67.0619 119.882 67.2695 119.858 67.4845C119.81 67.9057 118.718 78.0039 120.72 93.2873C122.565 107.372 127.519 128.645 140.645 150.019C153.882 171.573 171.265 180.592 183.52 184.361C194.725 187.811 203.632 187.634 206.407 187.467L217.056 201.409C217.307 201.737 217.679 201.953 218.089 202.008C218.499 202.063 218.914 201.953 219.243 201.701C219.571 201.45 219.787 201.079 219.842 200.669C219.897 200.259 219.786 199.844 219.535 199.515L208.918 185.615C209.969 182.961 212.922 174.515 213.164 162.787C213.428 149.901 210.293 130.503 193.851 111.277ZM85.5886 267.339C98.372 273.523 118.874 281.051 143.944 281.803C157.874 282.22 169.318 279.485 178.445 275.572C184.863 272.826 190.852 269.171 196.229 264.72C205.26 257.227 210.015 249.675 211.417 247.235L232.109 246.23C232.522 246.209 232.91 246.026 233.188 245.72C233.466 245.414 233.611 245.009 233.591 244.596C233.57 244.183 233.387 243.795 233.081 243.517C232.775 243.239 232.37 243.094 231.957 243.114L211.267 244.122C209.637 241.817 204.176 234.722 194.464 228.098C183.823 220.841 165.87 212.862 140.775 216.063C115.893 219.236 96.2127 228.713 84.0862 236.103C70.9242 244.124 63.7419 251.304 63.4422 251.606C63.2899 251.76 63.1713 251.944 63.0938 252.146C63.0163 252.348 62.9816 252.564 62.9921 252.78C63.0025 252.996 63.0578 253.208 63.1545 253.401C63.2511 253.595 63.3869 253.766 63.5533 253.904C63.878 254.176 71.7169 260.628 85.5886 267.339Z" fill="url(#paint0_linear_40_189)" fill-opacity="0.15"/>
</g>
<defs>
<linearGradient id="paint0_linear_40_189" x1="53.0397" y1="229.822" x2="300.486" y2="123.727" gradientUnits="userSpaceOnUse">
<stop offset="1" stop-color="#ADD7D0"/>
</linearGradient>
<clipPath id="clip0_40_189">
<rect width="269.232" height="269.232" fill="white" transform="translate(0 106.096) rotate(-23.2078)"/>
</clipPath>
</defs>
</svg>
