<svg width="256" height="216" viewBox="0 0 256 216" fill="none" xmlns="http://www.w3.org/2000/svg">
<path d="M210.201 159.315C218.472 167.44 226.353 171.327 228.913 172.461L231.837 192.561C231.866 192.764 231.935 192.959 232.04 193.135C232.145 193.311 232.283 193.464 232.447 193.587C232.611 193.709 232.798 193.798 232.997 193.848C233.195 193.898 233.402 193.909 233.604 193.88C233.807 193.85 234.002 193.781 234.177 193.676C234.353 193.572 234.507 193.433 234.629 193.269C234.752 193.105 234.841 192.918 234.891 192.72C234.941 192.521 234.952 192.315 234.923 192.112L231.999 172.008C234.153 170.163 240.749 164.027 246.429 153.71C252.651 142.408 258.842 123.766 253.008 99.1435C247.224 74.7366 235.721 56.1676 227.089 44.8875C217.722 32.6471 209.823 26.2634 209.493 25.9991C209.324 25.8639 209.129 25.7653 208.92 25.7096C208.711 25.6539 208.492 25.6423 208.278 25.6755C208.065 25.7088 207.86 25.7861 207.678 25.9027C207.495 26.0193 207.339 26.1725 207.219 26.3527C206.984 26.7064 201.396 35.1829 196.189 49.6863C191.392 63.0504 186.07 84.2339 187.973 109.243C189.889 134.461 201.119 150.392 210.201 159.315ZM130.851 45.2765C114.548 26.2134 95.8312 14.9615 83 8.87831C69.0755 2.27755 59.1343 0.215482 58.7181 0.13076C58.506 0.0876833 58.2873 0.0892023 58.0759 0.135229C57.8645 0.181255 57.6649 0.27078 57.4899 0.398106C57.315 0.525431 57.1684 0.687774 57.0596 0.87481C56.9507 1.06185 56.882 1.26948 56.8578 1.48451C56.8095 1.90571 55.7182 12.0039 57.7203 27.2873C59.5655 41.3718 64.5189 62.6445 77.6454 84.0186C90.8819 105.573 108.266 114.592 120.52 118.361C131.725 121.811 140.632 121.634 143.407 121.467L154.056 135.409C154.307 135.737 154.679 135.953 155.089 136.008C155.499 136.063 155.914 135.952 156.243 135.701C156.571 135.45 156.787 135.079 156.842 134.669C156.897 134.259 156.787 133.844 156.535 133.515L145.918 119.615C146.969 116.961 149.922 108.515 150.164 96.7868C150.428 83.9007 147.293 64.5033 130.851 45.2765ZM22.5886 201.339C35.372 207.522 55.8736 215.051 80.9443 215.803C94.874 216.22 106.318 213.485 115.445 209.572C121.863 206.826 127.852 203.171 133.229 198.72C142.26 191.227 147.015 183.675 148.417 181.235L169.109 180.23C169.522 180.209 169.91 180.026 170.188 179.72C170.466 179.414 170.611 179.009 170.591 178.596C170.57 178.183 170.387 177.795 170.081 177.517C169.775 177.239 169.37 177.094 168.957 177.114L148.267 178.122C146.637 175.817 141.176 168.722 131.464 162.098C120.823 154.841 102.87 146.862 77.7751 150.063C52.8933 153.236 33.2127 162.713 21.0862 170.103C7.92416 178.124 0.741906 185.304 0.442223 185.606C0.289919 185.76 0.171252 185.944 0.0937613 186.146C0.0162705 186.348 -0.018354 186.564 -0.00790367 186.78C0.00254665 186.996 0.0578429 187.207 0.154464 187.401C0.251085 187.595 0.386922 187.766 0.553343 187.904C0.878045 188.176 8.71692 194.628 22.5886 201.339Z" fill="url(#paint0_linear_40_166)" fill-opacity="0.15"/>
<defs>
<linearGradient id="paint0_linear_40_166" x1="-9.96035" y1="163.822" x2="237.486" y2="57.7267" gradientUnits="userSpaceOnUse">
<stop offset="1" stop-color="#ADD7D0"/>
</linearGradient>
</defs>
</svg>
