<svg width="24" height="24" viewBox="0 0 24 24" fill="none" xmlns="http://www.w3.org/2000/svg">
<path d="M6.76639 18.8028H17.2336C17.6785 18.8028 18.11 18.6502 18.456 18.3705C18.802 18.0908 19.0416 17.7008 19.1349 17.2658L20.9847 8.6331C21.0377 8.38587 21.0123 8.12828 20.9119 7.8962C20.8116 7.66413 20.6414 7.46912 20.425 7.33836C20.2086 7.20759 19.9568 7.14757 19.7047 7.16666C19.4526 7.18575 19.2127 7.283 19.0184 7.44486L16.72 9.36018C16.6152 9.44751 16.4932 9.51181 16.3619 9.54889C16.2307 9.58598 16.0931 9.59503 15.9581 9.57545C15.8231 9.55587 15.6937 9.50811 15.5784 9.43525C15.463 9.3624 15.3643 9.26609 15.2887 9.15259L12.8089 5.43293C12.7201 5.29976 12.5999 5.19056 12.4587 5.11504C12.3176 5.03952 12.16 5 12 5C11.8399 5 11.6824 5.03952 11.5412 5.11504C11.4001 5.19056 11.2798 5.29976 11.1911 5.43293L8.71129 9.15259C8.63562 9.26608 8.53692 9.36239 8.42159 9.43524C8.30627 9.50809 8.17691 9.55585 8.04192 9.57543C7.90692 9.59501 7.76932 9.58596 7.63805 9.54888C7.50678 9.51179 7.38479 9.4475 7.28 9.36018L4.98156 7.44484C4.78732 7.28298 4.54744 7.18573 4.29532 7.16664C4.0432 7.14755 3.79141 7.20757 3.57502 7.33834C3.35862 7.4691 3.1884 7.66411 3.08807 7.89618C2.98773 8.12826 2.96228 8.38585 3.01526 8.63308L4.86512 17.2658C4.95834 17.7008 5.19796 18.0907 5.54397 18.3705C5.88998 18.6502 6.32145 18.8028 6.76639 18.8028Z" fill="#1b3a62"/>
<path d="M12 16C13.1046 16 14 15.1046 14 14C14 12.8954 13.1046 12 12 12C10.8954 12 10 12.8954 10 14C10 15.1046 10.8954 16 12 16Z" fill="white"/>
<path d="M17.3829 20H6.61627C5.93064 19.9971 5.26646 19.7607 4.73325 19.3296C4.20004 18.8986 3.82965 18.2987 3.68316 17.6289L1.9317 9.458C1.82247 8.9493 1.87465 8.41919 2.08099 7.94156C2.28733 7.46392 2.63754 7.06256 3.08281 6.79341C3.52808 6.52426 4.04623 6.40073 4.56504 6.44004C5.08385 6.47935 5.57748 6.67953 5.97711 7.0127L7.78473 8.51855L9.91949 5.31738C10.1478 4.97493 10.4571 4.69413 10.8199 4.49992C11.1828 4.30572 11.588 4.2041 11.9996 4.2041C12.4111 4.2041 12.8163 4.30572 13.1792 4.49992C13.5421 4.69413 13.8514 4.97493 14.0797 5.31738L16.2144 8.51953L18.022 7.0127C18.4217 6.67953 18.9153 6.47935 19.4341 6.44004C19.9529 6.40073 20.4711 6.52426 20.9163 6.79341C21.3616 7.06256 21.7118 7.46392 21.9182 7.94156C22.1245 8.41919 22.1767 8.9493 22.0674 9.458L20.3164 17.6289C20.1698 18.2987 19.7993 18.8986 19.266 19.3296C18.7328 19.7606 18.0685 19.9971 17.3829 20ZM4.38336 8.42773C4.28955 8.42947 4.19789 8.4561 4.11773 8.50488C4.02636 8.55637 3.95439 8.6364 3.91285 8.73271C3.8713 8.82902 3.86248 8.93629 3.88773 9.03809L5.63873 17.209C5.6875 17.4323 5.8109 17.6324 5.9886 17.7762C6.1663 17.9199 6.38769 17.9989 6.61627 18H17.3829C17.6115 17.9988 17.8329 17.9199 18.0107 17.7761C18.1884 17.6323 18.3119 17.4323 18.3609 17.209L20.1114 9.03811C20.1334 8.93633 20.1231 8.83021 20.0818 8.7346C20.0406 8.63898 19.9705 8.55865 19.8813 8.50485C19.7921 8.45104 19.6884 8.42645 19.5846 8.43451C19.4808 8.44258 19.3821 8.48289 19.3023 8.54982L17.4947 10.0557C17.2801 10.2367 17.0292 10.3699 16.759 10.4462C16.4888 10.5225 16.2054 10.5402 15.9278 10.4981C15.6501 10.4579 15.3839 10.3597 15.1466 10.21C14.9093 10.0603 14.7061 9.86229 14.5503 9.62893L12.4156 6.42676C12.3699 6.35828 12.3081 6.30213 12.2355 6.2633C12.1629 6.22446 12.0819 6.20415 11.9996 6.20415C11.9173 6.20415 11.8362 6.22446 11.7637 6.2633C11.6911 6.30213 11.6292 6.35828 11.5836 6.42676L9.44879 9.62891C9.29298 9.86229 9.08982 10.0603 8.85249 10.21C8.61517 10.3598 8.34899 10.4579 8.07127 10.4981C7.79354 10.5382 7.51047 10.5195 7.24045 10.4431C6.97043 10.3667 6.7195 10.2344 6.50396 10.0547L4.69684 8.5498C4.61043 8.47273 4.49914 8.42939 4.38336 8.42773Z" fill="#1b3a62"/>
</svg>
