<svg width="177" height="211" viewBox="0 0 177 211" fill="none" xmlns="http://www.w3.org/2000/svg">
<path d="M73.1795 130.836C98.038 117.792 125.385 115.716 146.169 124.903C154.48 107.632 155.431 89.4942 147.201 73.8106C143.867 67.8072 139.543 62.4577 134.512 58.111C129.48 53.7642 123.854 50.5178 118.001 48.5835C103.208 42.8899 72.9059 38.0611 28.6277 62.2046L20.3609 66.5425L21.7871 66.4305C27.6753 66.0629 33.7807 67.1719 39.6781 69.6802L67.7917 81.6579L64.8577 96.0171L0.535421 68.9447L14.44 0.64226L28.0187 6.42746L22.3795 34.0254C21.0245 40.6073 18.2743 46.4975 14.3389 51.2459L13.9314 51.4598L21.3832 47.5496C57.9433 28.3652 92.3845 23.1122 120.345 33.8068C128.094 36.4918 135.522 40.894 142.152 46.7309C148.783 52.5678 154.468 59.7106 158.845 67.7009C180.167 108.336 156.2 160.007 103.106 187.868C79.1205 200.453 60.4323 191.44 53.2125 177.681C45.9928 163.922 49.1359 143.453 73.1795 130.836ZM95.6242 173.61C112.375 165.209 126.967 152.953 138.603 137.51C117.981 132.488 97.5872 135.157 80.661 145.094C65.5829 153.006 61.1151 164.442 64.8559 171.571C68.5967 178.7 80.4878 181.552 95.6242 173.61ZM168.739 143.154C169.604 144.607 170.391 146.107 171.096 147.645C180.934 166.394 177.516 189.735 162.186 210.326L150.903 199.154C162.823 183.807 166.223 166.658 159.677 154.182C159.602 154.04 168.739 143.154 168.739 143.154Z" fill="#F4E3C7" fill-opacity="0.15"/>
</svg>
