<svg width="20" height="20" viewBox="0 0 20 20" fill="none" xmlns="http://www.w3.org/2000/svg">
<path d="M9 0C4.04167 0 0 4.04167 0 9C0 13.9583 4.04167 18 9 18C11.1133 18 12.9775 17.1567 14.5158 15.93L18.2933 19.7075C18.4809 19.895 18.7352 20.0004 19.0004 20.0004C19.2656 20.0004 19.52 19.895 19.7075 19.7075C19.895 19.52 20.0004 19.2656 20.0004 19.0004C20.0004 18.7352 19.895 18.4809 19.7075 18.2933L15.93 14.5158C17.1567 12.9775 18 11.1133 18 9C18 4.04167 13.9583 0 9 0ZM9 2C12.8783 2 16 5.1225 16 9C16.0004 10.8336 15.2782 12.5935 13.99 13.8983C13.974 13.9128 13.9584 13.9278 13.9433 13.9433C13.9272 13.9592 13.9117 13.9756 13.8967 13.9925C12.5922 15.28 10.8328 16.0013 9 16C8.08019 16.002 7.16905 15.8223 6.31888 15.4712C5.46871 15.1201 4.69625 14.6046 4.04584 13.9542C3.39544 13.3038 2.8799 12.5313 2.52882 11.6811C2.17773 10.8309 1.99802 9.91981 2 9C2 5.12167 5.1225 2 9 2Z" fill="#F95520"/>
</svg>
