<svg width="249" height="220" viewBox="0 0 249 220" fill="none" xmlns="http://www.w3.org/2000/svg">
<mask id="mask0_584_245" style="mask-type:luminance" maskUnits="userSpaceOnUse" x="0" y="0" width="249" height="220">
<path d="M0 0H249V220H0V0Z" fill="white"/>
</mask>
<g mask="url(#mask0_584_245)">
<path fill-rule="evenodd" clip-rule="evenodd" d="M144.281 1.03529C143.176 -0.806035 140.507 -0.806035 139.404 1.03529L112.581 45.7504C112.228 46.3391 111.674 46.7801 111.022 46.9923C110.369 47.2047 109.661 47.1734 109.029 46.905L61.0497 26.4925C59.0733 25.6536 56.9149 27.2205 57.104 29.3605L61.6896 81.3001C61.7501 81.9838 61.561 82.6663 61.1575 83.2217C60.754 83.777 60.1633 84.1678 59.4942 84.3216L8.67922 96.0094C6.58764 96.4929 5.76295 99.0295 7.17203 100.649L41.4122 139.974C41.8632 140.491 42.1115 141.155 42.1115 141.841C42.1115 142.528 41.8632 143.191 41.4122 143.709L7.17345 183.034C5.76295 184.653 6.58764 187.191 8.68064 187.672L59.4942 199.361C60.1633 199.515 60.754 199.906 61.1575 200.461C61.561 201.016 61.7501 201.699 61.6896 202.383L57.104 254.322C56.9149 256.461 59.0747 258.031 61.0497 257.189L109.031 236.778C109.663 236.509 110.37 236.478 111.023 236.69C111.676 236.902 112.23 237.344 112.583 237.932L139.402 282.646C140.507 284.489 143.176 284.489 144.281 282.646L171.1 237.932C171.453 237.344 172.007 236.902 172.66 236.69C173.313 236.478 174.02 236.509 174.652 236.778L222.633 257.189C224.608 258.031 226.768 256.461 226.579 254.322L221.993 202.383C221.933 201.699 222.122 201.016 222.526 200.461C222.929 199.906 223.52 199.515 224.189 199.361L275.005 187.672C277.095 187.191 277.92 184.653 276.512 183.034L242.271 143.709C241.82 143.191 241.572 142.528 241.572 141.841C241.572 141.155 241.82 140.492 242.271 139.974L276.512 100.649C277.92 99.0295 277.095 96.4914 275.005 96.0109L224.189 84.3216C223.52 84.1678 222.929 83.777 222.526 83.2217C222.122 82.6663 221.933 81.9838 221.993 81.3001L226.579 29.359C226.768 27.2205 224.608 25.6522 222.633 26.4925L174.652 46.905C174.02 47.1734 173.313 47.2047 172.66 46.9923C172.007 46.7801 171.453 46.3391 171.1 45.7504L144.281 1.03529ZM142 213.094C181.264 213.094 213.094 181.264 213.094 142C213.094 102.736 181.264 70.9062 142 70.9062C102.736 70.9062 70.9062 102.736 70.9062 142C70.9062 181.264 102.736 213.094 142 213.094Z" fill="#F4E3C7" fill-opacity="0.15"/>
</g>
</svg>
