<svg width="306" height="323" viewBox="0 0 306 323" fill="none" xmlns="http://www.w3.org/2000/svg">
<path d="M138.972 172.589L106.737 139.294L92.0661 153.497L138.505 201.463L239.532 103.752L225.228 88.977L138.972 172.589Z" fill="#586E90" fill-opacity="0.1"/>
<path d="M270.429 321.171L251.664 214.866L254.9 211.129C274.505 189.718 285.087 161.564 284.438 132.54C282.98 104.107 271.21 77.1803 251.33 56.8003C231.451 36.4203 204.824 23.9847 176.437 21.8215C161.156 21.3254 145.933 23.9168 131.677 29.4408C117.422 34.9647 104.427 43.3077 93.4707 53.9704C82.2092 64.207 73.1387 76.6193 66.8068 90.4582C60.4749 104.297 57.013 119.275 56.6298 134.489L56.5951 136.64L28.0122 200.495L56.3822 213.142L55.3358 277.853L137.414 268.938L136.586 320.134L116.108 319.802L116.605 289.085L34.5265 298L35.6855 226.326L2.04088 210.522L37.2104 132.025C37.7708 114.3 41.8666 96.8668 49.2574 80.7474C56.6482 64.628 67.185 50.1477 80.2491 38.1565C93.3133 26.1654 108.641 16.9052 125.334 10.9195C142.026 4.93389 159.746 2.34349 177.453 3.30042C202.044 4.64619 225.78 12.7872 246.021 26.8181C266.261 40.8489 282.213 60.2194 292.102 82.7751C301.99 105.331 305.428 130.188 302.032 154.581C298.637 178.973 288.542 201.946 272.869 220.944L289.535 317.691L270.429 321.171Z" fill="#586E90" fill-opacity="0.1"/>
</svg>
