<svg width="183" height="233" viewBox="0 0 183 233" fill="none" xmlns="http://www.w3.org/2000/svg">
<path d="M118.04 108.385C95.5844 129.263 83.5254 156.683 85.4505 181.427C64.6427 183.724 45.6123 178.125 32.4403 163.957C27.4653 158.344 23.5227 151.949 20.8698 145.189C18.2169 138.428 16.9133 131.455 17.0439 124.723C16.5445 107.418 22.562 74.4491 63.4968 37.5917L70.9645 30.6488L70.3318 32.0774C67.8171 38.0102 66.7449 44.7022 67.1896 51.6876L69.3309 84.9954L85.188 87.1816L80.6311 11.0959L5.22173 0.643482L6.25594 16.7309L36.7331 20.9327C44.0053 21.9244 51.0711 21.2278 57.3905 18.8961L57.7586 18.5538L51.0272 24.8122C18.001 55.5174 0.095715 89.0933 0.970739 121.777C0.925621 130.735 2.76616 139.984 6.37426 148.932C9.98236 157.88 15.2783 166.328 21.9224 173.736C56.0498 210.443 117.977 204.495 165.938 159.904C187.605 139.76 185.098 117.237 173.543 104.809C161.987 92.3797 139.759 88.1923 118.04 108.385ZM153.964 147.024C139.233 161.234 121.314 171.82 101.183 178.206C103.49 155.139 113.637 135.098 130.015 121.265C143.635 108.602 157.038 108.147 163.025 114.587C169.012 121.027 167.637 134.312 153.964 147.024ZM96.0652 211.299C97.2487 212.718 98.5088 214.073 99.8371 215.356C115.584 232.293 140.87 237.239 167.644 228.915L160.227 213.239C140.093 219.952 121.192 217.234 110.714 205.964C110.595 205.835 96.0652 211.299 96.0652 211.299Z" fill="#FCEEE1" fill-opacity="0.15"/>
</svg>
