<svg width="49" height="48" viewBox="0 0 49 48" fill="none" xmlns="http://www.w3.org/2000/svg">
<path d="M14.0328 37.6056H34.9672C35.8571 37.6056 36.72 37.3004 37.412 36.7409C38.1041 36.1815 38.5833 35.4017 38.7698 34.5316L42.4695 17.2662C42.5754 16.7717 42.5245 16.2566 42.3238 15.7924C42.1232 15.3283 41.7827 14.9382 41.3499 14.6767C40.9172 14.4152 40.4136 14.2951 39.9093 14.3333C39.4051 14.3715 38.9253 14.566 38.5369 14.8897L33.94 18.7204C33.7304 18.895 33.4864 19.0236 33.2239 19.0978C32.9613 19.172 32.6861 19.1901 32.4161 19.1509C32.1461 19.1117 31.8874 19.0162 31.6567 18.8705C31.4261 18.7248 31.2287 18.5322 31.0773 18.3052L26.1179 10.8659C25.9403 10.5995 25.6997 10.3811 25.4175 10.2301C25.1353 10.079 24.8201 10 24.5 10C24.1799 10 23.8647 10.079 23.5825 10.2301C23.3003 10.3811 23.0597 10.5995 22.8821 10.8659L17.9226 18.3052C17.7712 18.5322 17.5738 18.7248 17.3432 18.8705C17.1125 19.0162 16.8538 19.1117 16.5838 19.1509C16.3138 19.19 16.0386 19.1719 15.7761 19.0978C15.5136 19.0236 15.2696 18.895 15.06 18.7204L10.4631 14.8897C10.0746 14.566 9.59487 14.3715 9.09064 14.3333C8.58641 14.2951 8.08282 14.4151 7.65004 14.6767C7.21725 14.9382 6.87681 15.3282 6.67614 15.7924C6.47547 16.2565 6.42456 16.7717 6.53051 17.2662L10.2302 34.5315C10.4167 35.4016 10.8959 36.1815 11.5879 36.7409C12.28 37.3004 13.1429 37.6056 14.0328 37.6056Z" fill="#1C365E"/>
<path d="M24.5 32C26.7091 32 28.5 30.2091 28.5 28C28.5 25.7909 26.7091 24 24.5 24C22.2909 24 20.5 25.7909 20.5 28C20.5 30.2091 22.2909 32 24.5 32Z" fill="white"/>
<path d="M35.2666 40H13.7334C12.3621 39.9943 11.0338 39.5214 9.96735 38.6593C8.90094 37.7972 8.16016 36.5974 7.86718 35.2578L4.36426 18.916C4.14579 17.8986 4.25016 16.8384 4.66284 15.8831C5.07551 14.9278 5.77593 14.1251 6.66648 13.5868C7.55702 13.0485 8.59332 12.8015 9.63094 12.8801C10.6686 12.9587 11.6558 13.3591 12.4551 14.0254L16.0703 17.0371L20.3398 10.6348C20.7964 9.94985 21.415 9.38826 22.1407 8.99985C22.8665 8.61143 23.6769 8.4082 24.5 8.4082C25.3231 8.4082 26.1335 8.61143 26.8593 8.99985C27.585 9.38826 28.2036 9.94985 28.6602 10.6348L32.9297 17.0391L36.5449 14.0254C37.3442 13.3591 38.3314 12.9587 39.3691 12.8801C40.4067 12.8015 41.443 13.0485 42.3335 13.5868C43.2241 14.1251 43.9245 14.9278 44.3372 15.8831C44.7499 16.8384 44.8542 17.8986 44.6357 18.916L41.1337 35.2578C40.8404 36.5974 40.0994 37.7971 39.0329 38.6591C37.9664 39.5212 36.6379 39.9941 35.2666 40ZM9.26758 16.8555C9.07996 16.8589 8.89663 16.9122 8.73632 17.0098C8.55357 17.1127 8.40963 17.2728 8.32655 17.4654C8.24346 17.658 8.22582 17.8726 8.27632 18.0762L11.7783 34.418C11.8758 34.8646 12.1226 35.2647 12.478 35.5523C12.8334 35.8399 13.2762 35.9978 13.7334 36H35.2666C35.7238 35.9977 36.1667 35.8397 36.5222 35.5522C36.8777 35.2646 37.1247 34.8646 37.2226 34.418L40.7236 18.0762C40.7677 17.8727 40.747 17.6604 40.6645 17.4692C40.582 17.278 40.4418 17.1173 40.2635 17.0097C40.0851 16.9021 39.8777 16.8529 39.67 16.869C39.4624 16.8852 39.265 16.9658 39.1054 17.0996L35.4902 20.1114C35.061 20.4735 34.5593 20.7397 34.0189 20.8923C33.4784 21.0449 32.9116 21.0803 32.3564 20.9961C31.801 20.9158 31.2687 20.7195 30.7941 20.42C30.3195 20.1205 29.9131 19.7246 29.6015 19.2579L25.332 12.8535C25.2407 12.7166 25.117 12.6043 24.9718 12.5266C24.8267 12.4489 24.6646 12.4083 24.5 12.4083C24.3354 12.4083 24.1733 12.4489 24.0282 12.5266C23.883 12.6043 23.7593 12.7166 23.668 12.8535L19.3984 19.2578C19.0868 19.7246 18.6805 20.1206 18.2058 20.4201C17.7312 20.7195 17.1988 20.9158 16.6434 20.9961C16.0879 21.0764 15.5218 21.039 14.9817 20.8862C14.4417 20.7334 13.9399 20.4688 13.5088 20.1094L9.89454 17.0996C9.72172 16.9455 9.49913 16.8588 9.26758 16.8555Z" fill="#1C365E"/>
</svg>
