<svg width="48" height="48" viewBox="0 0 48 48" fill="none" xmlns="http://www.w3.org/2000/svg">
<path fill-rule="evenodd" clip-rule="evenodd" d="M24 1.5C19.0472 1.5 15 5.54721 15 10.5C15 14.9413 18.2564 18.6516 22.5 19.3711V24H7.5C7.10219 24 6.72066 24.1581 6.43936 24.4394C6.15807 24.7207 6.00004 25.1022 6 25.5V33.1934C3.42177 33.865 1.5 36.2213 1.5 39C1.5 42.2959 4.20407 45 7.5 45C10.7959 45 13.5 42.2959 13.5 39C13.5 36.2213 11.5782 33.865 9 33.1934V27H22.5V33.1934C19.9218 33.865 18 36.2213 18 39C18 42.2959 20.7041 45 24 45C27.2959 45 30 42.2959 30 39C30 36.2213 28.0782 33.865 25.5 33.1934V27H39V33.1934C36.4218 33.865 34.5 36.2213 34.5 39C34.5 42.2959 37.2041 45 40.5 45C43.7959 45 46.5 42.2959 46.5 39C46.5 36.2213 44.5782 33.865 42 33.1934V25.5C42 25.1022 41.8419 24.7207 41.5606 24.4394C41.2793 24.1581 40.8978 24 40.5 24H25.5V19.3711C29.7436 18.6516 33 14.9413 33 10.5C33 5.54721 28.9528 1.5 24 1.5Z" fill="#1C365E"/>
</svg>
