<svg width="12" height="12" viewBox="0 0 12 12" fill="none" xmlns="http://www.w3.org/2000/svg">
<path d="M4.0714 5.57138C4.58289 5.57138 5.07343 5.36819 5.43511 5.00651C5.79679 4.64483 5.99997 4.15429 5.99997 3.6428C5.99997 3.13132 5.79679 2.64078 5.43511 2.2791C5.07343 1.91742 4.58289 1.71423 4.0714 1.71423C3.55991 1.71423 3.06937 1.91742 2.7077 2.2791C2.34602 2.64078 2.14283 3.13132 2.14283 3.6428C2.14283 4.15429 2.34602 4.64483 2.7077 5.00651C3.06937 5.36819 3.55991 5.57138 4.0714 5.57138ZM10.0714 4.07138C10.0714 4.26836 10.0326 4.46341 9.95722 4.6454C9.88184 4.82739 9.77135 4.99275 9.63206 5.13204C9.49277 5.27132 9.32742 5.38181 9.14543 5.4572C8.96344 5.53258 8.76838 5.57138 8.5714 5.57138C8.37442 5.57138 8.17937 5.53258 7.99738 5.4572C7.81539 5.38181 7.65003 5.27132 7.51074 5.13204C7.37145 4.99275 7.26096 4.82739 7.18558 4.6454C7.1102 4.46341 7.0714 4.26836 7.0714 4.07138C7.0714 3.67355 7.22944 3.29202 7.51074 3.01072C7.79205 2.72941 8.17358 2.57138 8.5714 2.57138C8.96923 2.57138 9.35076 2.72941 9.63206 3.01072C9.91337 3.29202 10.0714 3.67355 10.0714 4.07138ZM0.857117 7.39281C0.857117 7.13706 0.958711 6.89179 1.13955 6.71095C1.32039 6.53011 1.56566 6.42852 1.8214 6.42852H6.3214C6.40655 6.42881 6.4884 6.43938 6.56697 6.46023C6.25198 6.76005 6.00127 7.12082 5.83012 7.5206C5.65897 7.92037 5.57094 8.35079 5.5714 8.78566C5.5714 9.07066 5.60826 9.34666 5.67812 9.60938C5.26026 9.76152 4.73397 9.85709 4.0714 9.85709C0.857117 9.85709 0.857117 7.60709 0.857117 7.60709V7.39281ZM11.5714 8.78566C11.5714 9.52448 11.2779 10.233 10.7555 10.7555C10.2331 11.2779 9.5245 11.5714 8.78569 11.5714C8.04687 11.5714 7.33831 11.2779 6.81589 10.7555C6.29347 10.233 5.99997 9.52448 5.99997 8.78566C5.99997 8.04684 6.29347 7.33829 6.81589 6.81587C7.33831 6.29344 8.04687 5.99995 8.78569 5.99995C9.5245 5.99995 10.2331 6.29344 10.7555 6.81587C11.2779 7.33829 11.5714 8.04684 11.5714 8.78566ZM8.99997 7.07138C8.99997 7.01454 8.9774 6.96004 8.93721 6.91985C8.89702 6.87967 8.84252 6.85709 8.78569 6.85709C8.72886 6.85709 8.67435 6.87967 8.63416 6.91985C8.59398 6.96004 8.5714 7.01454 8.5714 7.07138V8.57138H7.0714C7.01457 8.57138 6.96007 8.59395 6.91988 8.63414C6.87969 8.67433 6.85712 8.72883 6.85712 8.78566C6.85712 8.84249 6.87969 8.897 6.91988 8.93719C6.96007 8.97737 7.01457 8.99995 7.0714 8.99995H8.5714V10.4999C8.5714 10.5568 8.59398 10.6113 8.63416 10.6515C8.67435 10.6917 8.72886 10.7142 8.78569 10.7142C8.84252 10.7142 8.89702 10.6917 8.93721 10.6515C8.9774 10.6113 8.99997 10.5568 8.99997 10.4999V8.99995H10.5C10.5568 8.99995 10.6113 8.97737 10.6515 8.93719C10.6917 8.897 10.7143 8.84249 10.7143 8.78566C10.7143 8.72883 10.6917 8.67433 10.6515 8.63414C10.6113 8.59395 10.5568 8.57138 10.5 8.57138H8.99997V7.07138Z" fill="#eaf3ff"/>
</svg>
