<svg width="12" height="12" viewBox="0 0 12 12" fill="none" xmlns="http://www.w3.org/2000/svg">
<g clip-path="url(#clip0_574_121)">
<path d="M7.60716 6.00003C7.55144 6.00003 7.49144 5.99146 7.43573 5.97432C7.32915 5.93832 7.23661 5.86969 7.17122 5.77815C7.10584 5.68661 7.07093 5.57681 7.07144 5.46432V4.71003C6.47144 4.65432 6.00001 4.14861 6.00001 3.53575V2.03575C6.00001 1.38432 6.52716 0.857178 7.17858 0.857178H9.9643C10.6157 0.857178 11.1429 1.38432 11.1429 2.03575V3.53575C11.1429 4.18718 10.6157 4.71432 9.9643 4.71432H8.84144L8.03573 5.78575C7.93287 5.92289 7.7743 6.00003 7.60716 6.00003ZM4.07144 7.07146C3.58872 7.07033 3.12609 6.87807 2.78475 6.53673C2.44341 6.19539 2.25114 5.73276 2.25001 5.25003C2.25114 4.76731 2.44341 4.30468 2.78475 3.96334C3.12609 3.622 3.58872 3.42974 4.07144 3.42861C4.55417 3.42974 5.0168 3.622 5.35814 3.96334C5.69947 4.30468 5.89174 4.76731 5.89287 5.25003C5.89174 5.73276 5.69947 6.19539 5.35814 6.53673C5.0168 6.87807 4.55417 7.07033 4.07144 7.07146ZM1.48758 10.2515C2.04901 10.8429 2.91901 11.1429 4.07187 11.1429C5.22473 11.1429 6.09473 10.8429 6.65616 10.2515C7.30844 9.56146 7.28744 8.72875 7.28616 8.67261V8.67003C7.28616 8.14289 6.85758 7.71432 6.33044 7.71432H1.8133C1.28616 7.71432 0.857584 8.14289 0.857584 8.65289V8.65846C0.85587 8.73989 0.839584 9.56575 1.48758 10.2515Z" fill="#eaf3ff"/>
</g>
<defs>
<clipPath id="clip0_574_121">
<rect width="12" height="12" fill="white"/>
</clipPath>
</defs>
</svg>
