<svg width="48" height="48" viewBox="0 0 48 48" fill="none" xmlns="http://www.w3.org/2000/svg">
<path fill-rule="evenodd" clip-rule="evenodd" d="M35.3491 30.2821C30.2521 33.2761 24.0511 35.3341 18.3151 36.1321C17.9791 37.2961 17.2531 38.2861 16.2631 38.9341C17.7991 42.2131 20.0101 45.1951 22.6801 47.8951C30.2161 48.2551 37.8031 45.0811 42.7861 38.6731C42.8731 38.5591 42.9511 38.4331 43.0351 38.3161C42.3031 35.5741 41.0911 32.9641 39.6001 30.3841C39.3301 30.4621 39.0721 30.5221 38.8171 30.5701C38.3881 30.6901 37.9441 30.7741 37.4791 30.7741C36.7141 30.7741 36.0001 30.5881 35.3491 30.2821Z" fill="#eaf3ff"/>
<path fill-rule="evenodd" clip-rule="evenodd" d="M27.153 16.476C25.227 15.075 23.205 13.821 21.141 12.708C20.385 14.52 18.597 15.789 16.506 15.789C16.131 15.789 15.771 15.741 15.42 15.663C14.199 20.268 13.548 25.149 13.887 29.745C16.179 29.919 18.033 31.596 18.447 33.807C23.532 32.97 28.857 31.17 33.348 28.593C32.79 27.78 32.457 26.802 32.457 25.746C32.457 24.507 32.925 23.388 33.666 22.512C31.704 20.304 29.499 18.183 27.153 16.476Z" fill="#eaf3ff"/>
<path fill-rule="evenodd" clip-rule="evenodd" d="M12 29.967C11.589 25.065 12.312 19.791 13.623 14.871C12.333 13.959 11.484 12.465 11.484 10.764C11.484 10.173 11.601 9.60604 11.796 9.07804C9.82802 8.71204 7.85402 8.48404 5.87402 8.33704C5.60702 8.64904 5.31902 8.94904 5.06702 9.27904C-0.11998 15.951 -1.21498 24.495 1.37702 31.92C3.69002 32.907 6.07502 33.561 8.56802 33.918C8.87702 32.043 10.224 30.534 12 29.967Z" fill="#eaf3ff"/>
<path fill-rule="evenodd" clip-rule="evenodd" d="M41.784 29.0671C41.697 29.1781 41.592 29.2681 41.496 29.3671C42.795 31.5751 43.893 33.8131 44.655 36.1711C48.006 30.5011 48.768 23.8741 47.151 17.8051C46.881 18.2041 46.623 18.6061 46.338 18.9931C45.03 20.7961 43.713 22.6441 42.276 24.3091C42.411 24.7651 42.504 25.2421 42.504 25.7461V25.7581C42.756 26.8801 42.543 28.0951 41.784 29.0671Z" fill="#eaf3ff"/>
<path fill-rule="evenodd" clip-rule="evenodd" d="M21.4921 10.3411C23.8891 11.5831 26.2441 13.0351 28.4821 14.6611C31.0021 16.4941 33.3631 18.7801 35.4541 21.1531C36.0751 20.8771 36.7561 20.7181 37.4821 20.7181C38.9821 20.7181 40.3171 21.3931 41.2381 22.4341C42.4501 20.9581 43.5871 19.3681 44.7211 17.8141C45.3031 17.0101 45.8371 16.1851 46.3531 15.3541C44.8351 11.4211 42.2911 7.83606 38.7271 5.06106C34.0921 1.45506 28.5451 -0.170939 23.1031 0.0360606C22.7581 0.474061 22.4161 0.906061 22.0861 1.35306C20.8831 3.00906 19.8691 4.59306 18.9661 6.26406C19.0831 6.35106 19.1581 6.46206 19.2661 6.56406C20.5171 7.39206 21.3571 8.76606 21.4921 10.3411Z" fill="#eaf3ff"/>
<path fill-rule="evenodd" clip-rule="evenodd" d="M8.637 35.8951C6.504 35.6011 4.431 35.1571 2.427 34.4341C3.984 37.6591 6.261 40.5931 9.282 42.9421C12.48 45.4291 16.113 46.9711 19.845 47.6251C17.679 45.1741 15.909 42.5071 14.586 39.6451C14.241 39.7171 13.884 39.7651 13.515 39.7651C11.139 39.7621 9.162 38.1091 8.637 35.8951Z" fill="#eaf3ff"/>
<path fill-rule="evenodd" clip-rule="evenodd" d="M13.542 6.72601C14.475 5.70001 15.831 5.25901 17.139 5.47801C18.075 3.72001 19.131 2.04901 20.382 0.312012C15.708 1.02601 11.256 3.12001 7.64099 6.49801C9.41099 6.69601 11.169 6.91801 12.924 7.25401C13.113 7.06201 13.323 6.89101 13.542 6.72601Z" fill="#eaf3ff"/>
</svg>
