<svg width="48" height="48" viewBox="0 0 48 48" fill="none" xmlns="http://www.w3.org/2000/svg">
<path d="M42.6667 0H5.33333C2.4 0 0 2.4 0 5.33333V42.6667C0 45.6 2.4 48 5.33333 48H42.6667C45.6 48 48 45.6 48 42.6667V5.33333C48 2.4 45.6 0 42.6667 0ZM13.3333 37.3333C11.8667 37.3333 10.6667 36.1333 10.6667 34.6667V21.3333C10.6667 19.8667 11.8667 18.6667 13.3333 18.6667C14.8 18.6667 16 19.8667 16 21.3333V34.6667C16 36.1333 14.8 37.3333 13.3333 37.3333ZM24 37.3333C22.5333 37.3333 21.3333 36.1333 21.3333 34.6667V13.3333C21.3333 11.8667 22.5333 10.6667 24 10.6667C25.4667 10.6667 26.6667 11.8667 26.6667 13.3333V34.6667C26.6667 36.1333 25.4667 37.3333 24 37.3333ZM34.6667 37.3333C33.2 37.3333 32 36.1333 32 34.6667V29.3333C32 27.8667 33.2 26.6667 34.6667 26.6667C36.1333 26.6667 37.3333 27.8667 37.3333 29.3333V34.6667C37.3333 36.1333 36.1333 37.3333 34.6667 37.3333Z" fill="#F4E3C7"/>
</svg>
