<svg width="12" height="12" viewBox="0 0 12 12" fill="none" xmlns="http://www.w3.org/2000/svg">
<path d="M10.225 2.685C10.2552 2.60911 10.2664 2.52697 10.2575 2.44576C10.2487 2.36456 10.2201 2.28676 10.1742 2.21918C10.1283 2.15159 10.0666 2.09627 9.99435 2.05807C9.92215 2.01986 9.84169 1.99992 9.76 2H3.5V1.5C3.5 1.225 3.275 1 3 1C2.725 1 2.5 1.225 2.5 1.5V11H3.5V7H9.76C10.115 7 10.355 6.645 10.225 6.315L9.5 4.5L10.225 2.685ZM7.5 4.5C7.5 5.05 7.05 5.5 6.5 5.5C5.95 5.5 5.5 5.05 5.5 4.5C5.5 3.95 5.95 3.5 6.5 3.5C7.05 3.5 7.5 3.95 7.5 4.5Z" fill="#F4E3C7"/>
</svg>
