<svg width="12" height="12" viewBox="0 0 12 12" fill="none" xmlns="http://www.w3.org/2000/svg">
<path d="M2.5 6C2.98143 5.63893 3.57695 5.46363 4.17722 5.50629C4.7775 5.54895 5.34224 5.8067 5.76777 6.23223C6.1933 6.65776 6.45105 7.2225 6.49371 7.82278C6.53637 8.42305 6.36107 9.01857 6 9.5M2.5 6C2.18951 6.23287 1.9375 6.53483 1.76393 6.88197C1.59036 7.2291 1.5 7.61189 1.5 8C1.49984 8.25139 1.5376 8.50137 1.612 8.7415C1.748 9.1815 1.65 9.6715 1.5625 10.1335C1.55474 10.173 1.5573 10.2138 1.56992 10.252C1.58255 10.2902 1.60482 10.3245 1.63457 10.3516C1.66433 10.3787 1.70057 10.3977 1.7398 10.4067C1.77903 10.4157 1.81991 10.4144 1.8585 10.403C2.2825 10.287 2.704 10.188 3.137 10.347C3.41341 10.4484 3.70557 10.5002 4 10.5C4.38818 10.5004 4.7711 10.4102 5.1183 10.2366C5.4655 10.063 5.7674 9.81078 6 9.5M2.5 6C2.5 3.6575 3.9375 1.5 6.5 1.5C7.14148 1.49989 7.77357 1.65406 8.34296 1.9495C8.91235 2.24494 9.40234 2.67299 9.77158 3.19754C10.1408 3.72209 10.3785 4.32775 10.4645 4.96343C10.5506 5.59911 10.4825 6.24616 10.266 6.85C10.028 7.513 10.2845 8.401 10.4345 9.134C10.4432 9.17303 10.4414 9.21368 10.4293 9.25178C10.4171 9.28989 10.3951 9.32408 10.3654 9.35084C10.3357 9.37761 10.2993 9.39599 10.2602 9.4041C10.221 9.41221 10.1804 9.40976 10.1425 9.397C9.4865 9.192 8.7165 8.904 8.1 9.164C7.433 9.445 6.732 9.5 6 9.5" stroke="#eaf3ff" stroke-linecap="round" stroke-linejoin="round"/>
</svg>
