<svg width="46" height="44" viewBox="0 0 46 44" fill="none" xmlns="http://www.w3.org/2000/svg">
<path fill-rule="evenodd" clip-rule="evenodd" d="M23 0.5C18.0472 0.5 14 4.54721 14 9.5C14 13.9413 17.2564 17.6516 21.5 18.3711V23H6.5C6.10219 23 5.72066 23.1581 5.43936 23.4394C5.15807 23.7207 5.00004 24.1022 5 24.5V32.1934C2.42177 32.865 0.5 35.2213 0.5 38C0.5 41.2959 3.20407 44 6.5 44C9.79593 44 12.5 41.2959 12.5 38C12.5 35.2213 10.5782 32.865 8 32.1934V26H21.5V32.1934C18.9218 32.865 17 35.2213 17 38C17 41.2959 19.7041 44 23 44C26.2959 44 29 41.2959 29 38C29 35.2213 27.0782 32.865 24.5 32.1934V26H38V32.1934C35.4218 32.865 33.5 35.2213 33.5 38C33.5 41.2959 36.2041 44 39.5 44C42.7959 44 45.5 41.2959 45.5 38C45.5 35.2213 43.5782 32.865 41 32.1934V24.5C41 24.1022 40.8419 23.7207 40.5606 23.4394C40.2793 23.1581 39.8978 23 39.5 23H24.5V18.3711C28.7436 17.6516 32 13.9413 32 9.5C32 4.54721 27.9528 0.5 23 0.5Z" fill="#eaf3ff"/>
</svg>
