<svg width="49" height="48" viewBox="0 0 49 48" fill="none" xmlns="http://www.w3.org/2000/svg">
<path fill-rule="evenodd" clip-rule="evenodd" d="M14.68 12H12.5C11.44 12 10.42 12.42 9.67 13.17C8.92 13.92 8.5 14.94 8.5 16V40C8.5 42.21 10.29 44 12.5 44H36.5C38.71 44 40.5 42.21 40.5 40V16C40.5 14.94 40.08 13.92 39.33 13.17C38.58 12.42 37.56 12 36.5 12H34.32C34.43 12.32 34.5 12.67 34.5 13.03V15H34.97C36.37 15 37.5 16.13 37.5 17.53V38.48C37.5 39.88 36.37 41.01 34.97 41.01H14.03C12.63 41.01 11.5 39.88 11.5 38.48V17.53C11.5 16.13 12.63 15 14.03 15H14.5V13.03C14.5 12.67 14.56 12.32 14.68 12ZM34.32 17C33.9 18.17 32.78 19 31.47 19H17.53C16.22 19 15.1 18.17 14.68 17H14.03C13.74 17 13.5 17.24 13.5 17.53V38.48C13.5 38.77 13.74 39.01 14.03 39.01H34.98C35.27 39.01 35.51 38.77 35.51 38.48V17.53C35.51 17.24 35.27 17 34.98 17H34.33H34.32ZM16.5 36H32.5C33.05 36 33.5 35.55 33.5 35C33.5 34.45 33.05 34 32.5 34H16.5C15.95 34 15.5 34.45 15.5 35C15.5 35.55 15.95 36 16.5 36ZM16.5 32H32.5C33.05 32 33.5 31.55 33.5 31C33.5 30.45 33.05 30 32.5 30H16.5C15.95 30 15.5 30.45 15.5 31C15.5 31.55 15.95 32 16.5 32ZM16.5 28H32.5C33.05 28 33.5 27.55 33.5 27C33.5 26.45 33.05 26 32.5 26H16.5C15.95 26 15.5 26.45 15.5 27C15.5 27.55 15.95 28 16.5 28ZM16.5 24H32.5C33.05 24 33.5 23.55 33.5 23C33.5 22.45 33.05 22 32.5 22H16.5C15.95 22 15.5 22.45 15.5 23C15.5 23.55 15.95 24 16.5 24ZM32.5 13.03V15.97C32.5 16.54 32.04 17 31.47 17H17.53C16.96 17 16.5 16.54 16.5 15.97V13.03C16.5 12.46 16.96 12 17.53 12H31.47C32.04 12 32.5 12.46 32.5 13.03ZM16.75 10.1C17 10.03 17.26 9.99999 17.53 9.99999H31.47C31.74 9.99999 32 10.04 32.25 10.1L31.89 8.99999C31.49 7.79999 30.37 6.98999 29.11 6.98999H28.36C28.07 5.80999 27.19 3.98999 24.5 3.98999C21.81 3.98999 20.93 5.80999 20.64 6.98999H19.89C18.63 6.98999 17.51 7.79999 17.11 8.99999L16.75 10.1ZM24.5 5.99999C25.05 5.99999 25.5 6.44999 25.5 6.99999C25.5 7.54999 25.05 7.99999 24.5 7.99999C23.95 7.99999 23.5 7.54999 23.5 6.99999C23.5 6.44999 23.95 5.99999 24.5 5.99999Z" fill="#F4E3C7"/>
</svg>
