<svg width="12" height="12" viewBox="0 0 12 12" fill="none" xmlns="http://www.w3.org/2000/svg">
<path d="M4 5.5C4.53043 5.5 5.03914 5.28929 5.41421 4.91421C5.78929 4.53914 6 4.03043 6 3.5C6 2.96957 5.78929 2.46086 5.41421 2.08579C5.03914 1.71071 4.53043 1.5 4 1.5C3.46957 1.5 2.96086 1.71071 2.58579 2.08579C2.21071 2.46086 2 2.96957 2 3.5C2 4.03043 2.21071 4.53914 2.58579 4.91421C2.96086 5.28929 3.46957 5.5 4 5.5ZM8.5 5.5C8.89782 5.5 9.27936 5.34196 9.56066 5.06066C9.84196 4.77936 10 4.39782 10 4C10 3.60218 9.84196 3.22064 9.56066 2.93934C9.27936 2.65804 8.89782 2.5 8.5 2.5C8.10218 2.5 7.72064 2.65804 7.43934 2.93934C7.15804 3.22064 7 3.60218 7 4C7 4.39782 7.15804 4.77936 7.43934 5.06066C7.72064 5.34196 8.10218 5.5 8.5 5.5ZM2.125 6.5C1.82663 6.5 1.54048 6.61853 1.3295 6.8295C1.11853 7.04048 1 7.32663 1 7.625V7.75C1 7.75 1 10 4 10C4.695 10 5.229 9.8795 5.639 9.6935C5.54652 9.38755 5.49969 9.06962 5.5 8.75C5.5 7.9215 5.81 7.1655 6.32 6.5915C6.17965 6.53037 6.02808 6.4992 5.875 6.5H2.125ZM11.5 8.75C11.5 9.47935 11.2103 10.1788 10.6945 10.6945C10.1788 11.2103 9.47935 11.5 8.75 11.5C8.02065 11.5 7.32118 11.2103 6.80546 10.6945C6.28973 10.1788 6 9.47935 6 8.75C6 8.02065 6.28973 7.32118 6.80546 6.80546C7.32118 6.28973 8.02065 6 8.75 6C9.47935 6 10.1788 6.28973 10.6945 6.80546C11.2103 7.32118 11.5 8.02065 11.5 8.75ZM10.073 7.573L8.25 9.3965L7.427 8.573C7.38006 8.52606 7.31639 8.49968 7.25 8.49968C7.18361 8.49968 7.11994 8.52606 7.073 8.573C7.02606 8.61994 6.99968 8.68361 6.99968 8.75C6.99968 8.81639 7.02606 8.88006 7.073 8.927L8.073 9.927C8.09622 9.95028 8.12381 9.96875 8.15418 9.98136C8.18456 9.99396 8.21712 10.0004 8.25 10.0004C8.28288 10.0004 8.31544 9.99396 8.34582 9.98136C8.37619 9.96875 8.40378 9.95028 8.427 9.927L10.427 7.927C10.4739 7.88006 10.5003 7.81639 10.5003 7.75C10.5003 7.68361 10.4739 7.61994 10.427 7.573C10.3801 7.52606 10.3164 7.49968 10.25 7.49968C10.1836 7.49968 10.1199 7.52606 10.073 7.573Z" fill="#F4E3C7"/>
</svg>
