<svg width="12" height="12" viewBox="0 0 12 12" fill="none" xmlns="http://www.w3.org/2000/svg">
<path d="M4.5 5.5C4.89556 5.5 5.28224 5.3827 5.61114 5.16294C5.94004 4.94318 6.19638 4.63082 6.34776 4.26537C6.49913 3.89992 6.53874 3.49778 6.46157 3.10982C6.3844 2.72186 6.19392 2.36549 5.91421 2.08579C5.63451 1.80608 5.27814 1.6156 4.89018 1.53843C4.50222 1.46126 4.10009 1.50087 3.73463 1.65224C3.36918 1.80362 3.05682 2.05996 2.83706 2.38886C2.6173 2.71776 2.5 3.10444 2.5 3.5C2.5 4.03043 2.71071 4.53914 3.08579 4.91421C3.46086 5.28929 3.96957 5.5 4.5 5.5ZM8.5 6.5C8.79667 6.5 9.08668 6.41203 9.33335 6.24721C9.58003 6.08238 9.77229 5.84812 9.88582 5.57403C9.99935 5.29994 10.0291 4.99834 9.97118 4.70737C9.9133 4.41639 9.77044 4.14912 9.56066 3.93934C9.35088 3.72956 9.08361 3.5867 8.79264 3.52882C8.50166 3.47095 8.20006 3.50065 7.92597 3.61418C7.65189 3.72771 7.41762 3.91997 7.2528 4.16665C7.08797 4.41332 7 4.70333 7 5C7 5.39783 7.15804 5.77936 7.43934 6.06066C7.72064 6.34197 8.10218 6.5 8.5 6.5ZM10.5 10C10.6326 10 10.7598 9.94732 10.8536 9.85355C10.9473 9.75979 11 9.63261 11 9.5C10.9996 9.0327 10.8682 8.57486 10.6208 8.17844C10.3734 7.78202 10.0198 7.46288 9.60017 7.25724C9.18055 7.05159 8.71169 6.96767 8.2468 7.015C7.7819 7.06233 7.33957 7.23901 6.97 7.525C6.48026 7.03718 5.85703 6.7053 5.17891 6.57121C4.5008 6.43713 3.79816 6.50684 3.15961 6.77157C2.52107 7.03629 1.97521 7.48417 1.59087 8.05872C1.20653 8.63327 1.00094 9.30876 1 10C1 10.1326 1.05268 10.2598 1.14645 10.3536C1.24021 10.4473 1.36739 10.5 1.5 10.5H7.5C7.63261 10.5 7.75979 10.4473 7.85355 10.3536C7.94732 10.2598 8 10.1326 8 10" fill="#F4E3C7"/>
</svg>
