<svg width="12" height="12" viewBox="0 0 12 12" fill="none" xmlns="http://www.w3.org/2000/svg">
<path d="M10 10.0001L7.975 7.97506M7.975 7.97506C8.30002 7.65004 8.55784 7.26418 8.73374 6.83952C8.90964 6.41486 9.00017 5.95971 9.00017 5.50006C9.00017 5.04041 8.90964 4.58526 8.73374 4.1606C8.55784 3.73593 8.30002 3.35008 7.975 3.02506C7.64997 2.70003 7.26412 2.44221 6.83946 2.26631C6.41479 2.09041 5.95965 1.99988 5.5 1.99988C5.04035 1.99988 4.5852 2.09041 4.16054 2.26631C3.73587 2.44221 3.35002 2.70003 3.025 3.02506C2.36858 3.68147 1.99982 4.57175 1.99982 5.50006C1.99982 6.42836 2.36858 7.31865 3.025 7.97506C3.68141 8.63147 4.57169 9.00023 5.5 9.00023C6.4283 9.00023 7.31858 8.63147 7.975 7.97506Z" stroke="#F4E3C7" stroke-linecap="round" stroke-linejoin="round"/>
</svg>
