<svg width="48" height="48" viewBox="0 0 48 48" fill="none" xmlns="http://www.w3.org/2000/svg">
<path d="M25.4283 4.00072C26.5283 3.98072 27.5703 4.37872 28.3483 5.14072C29.1303 5.87872 29.5483 6.90072 29.5483 7.98072C29.5483 10.1807 31.3683 11.9627 33.6303 11.9627C34.3283 11.9627 35.0283 11.7607 35.6503 11.4207C37.5883 10.3787 40.0083 11.0407 41.1083 12.9007L42.4703 15.2407C42.8103 15.8407 43.0083 16.5207 43.0083 17.2207C43.0083 18.6407 42.2303 19.9627 40.9703 20.6607C40.3483 21.0007 39.8283 21.5207 39.4703 22.1227C38.4083 24.0007 39.0703 26.3787 40.9703 27.4627C42.8883 28.5607 43.5483 30.9627 42.4703 32.8607L41.1083 35.1227C40.3883 36.3607 39.0483 37.1227 37.6083 37.1227C36.8883 37.1227 36.1683 36.9407 35.5703 36.5807C34.9283 36.2407 34.2303 36.0407 33.5283 36.0407C32.4483 36.0407 31.4083 36.4627 30.6503 37.2207C29.8683 37.9627 29.4483 38.9807 29.4483 40.0407C29.4483 42.2207 27.6303 44.0007 25.3683 44.0007H22.6303C21.5483 44.0007 20.5283 43.5607 19.7883 42.8207C19.0283 42.0607 18.6303 41.0607 18.6303 40.0207C18.6303 37.8207 16.8283 36.0407 14.5703 36.0407C13.8283 36.0407 13.1083 36.2407 12.4883 36.6227C11.5483 37.1407 10.4283 37.2807 9.38826 37.0207C8.34826 36.7407 7.44826 36.0607 6.90826 35.1607L5.63026 32.9007C5.02826 31.9627 4.84826 30.8407 5.13026 29.7807C5.40826 28.7207 6.13026 27.8207 7.10826 27.2807C7.73026 26.9407 8.24826 26.4407 8.60826 25.8207C9.65026 23.9407 8.98826 21.5807 7.10826 20.4807C5.20826 19.4007 4.54826 17.0207 5.63026 15.1407L6.90826 12.9007C7.44826 11.9627 8.34826 11.2807 9.40826 11.0007C10.4703 10.7207 11.5883 10.8787 12.5283 11.4207C13.1683 11.7607 13.8683 11.9407 14.5703 11.9407C15.6503 11.9407 16.6883 11.5207 17.4483 10.7807C18.2083 10.0407 18.6303 9.02072 18.6303 7.98072C18.6303 5.78072 20.4483 4.00072 22.7083 4.00072H25.4283ZM26.2303 18.9627C24.1303 18.1007 21.7083 18.5607 20.0883 20.1407C18.4883 21.7007 17.9883 24.0807 18.8683 26.1227C19.7303 28.1807 21.7683 29.5207 24.0483 29.5207H24.0703C25.5703 29.5407 26.9703 28.9627 28.0283 27.9207C29.0883 26.9007 29.6883 25.5007 29.6883 24.0407C29.7083 21.8207 28.3283 19.8007 26.2303 18.9627Z" fill="#eaf3ff"/>
</svg>
