<svg width="48" height="48" viewBox="0 0 48 48" fill="none" xmlns="http://www.w3.org/2000/svg">
<path d="M44.7 11L36 19.6C36 19.6 33.4 19.6 30.8 17C28.2 14.4 28.2 11.8 28.2 11.8L36.9 3.10003C32 1.90003 26.1 3.50003 22.5 7.10003C17.1 12.5 21.9 19.4 20.5 20.8C12.9 28.7 5.09997 34.7 4.89997 35C2.59997 37.3 2.49997 41 4.69997 43.2C6.89997 45.4 10.6 45.3 12.9 43C13.2 42.7 19.6 34.6 27.1 27.1C28.5 25.7 35.1 30.8 40.7 25.3C44.2 21.7 45.9 15.9 44.7 11ZM9.39997 41.1C7.99997 41.1 6.89997 40 6.89997 38.6C6.89997 37.1 7.99997 36 9.39997 36C10.8 36 11.9 37.1 11.9 38.5C11.9 39.9 10.8 41.1 9.39997 41.1Z" fill="#F4E3C7"/>
</svg>
