<svg width="12" height="12" viewBox="0 0 12 12" fill="none" xmlns="http://www.w3.org/2000/svg">
<path d="M10.5 1.5H1.5C1.23478 1.5 0.98043 1.60536 0.792893 1.79289C0.605357 1.98043 0.5 2.23478 0.5 2.5V4H1.5V2.5H10.5V9.5H7V10.5H10.5C10.7652 10.5 11.0196 10.3946 11.2071 10.2071C11.3946 10.0196 11.5 9.76522 11.5 9.5V2.5C11.5 2.23478 11.3946 1.98043 11.2071 1.79289C11.0196 1.60536 10.7652 1.5 10.5 1.5ZM0.5 9V10.5H2C2 10.1022 1.84196 9.72064 1.56066 9.43934C1.27936 9.15804 0.897825 9 0.5 9ZM0.5 7V8C0.828305 8 1.15339 8.06466 1.45671 8.1903C1.76002 8.31594 2.03562 8.50009 2.26777 8.73223C2.49991 8.96438 2.68406 9.23998 2.8097 9.54329C2.93534 9.84661 3 10.1717 3 10.5H4C4 9.57174 3.63125 8.6815 2.97487 8.02513C2.3185 7.36875 1.42826 7 0.5 7ZM0.5 5V6C1.09095 6 1.67611 6.1164 2.22208 6.34254C2.76804 6.56869 3.26412 6.90016 3.68198 7.31802C4.09984 7.73588 4.43131 8.23196 4.65746 8.77792C4.8836 9.32389 5 9.90905 5 10.5H6C6 7.46 3.535 5 0.5 5ZM5.5 5.545V6.545L7.25 7.5L9 6.545V5.545L7.25 6.5L5.5 5.545ZM7.25 3L4.5 4.5L7.25 6L10 4.5L7.25 3Z" fill="#eaf3ff"/>
</svg>
