<svg width="32" height="32" viewBox="0 0 32 32" fill="none" xmlns="http://www.w3.org/2000/svg">
<path d="M15.9998 17.8666L19.8665 21.7333C20.111 21.9777 20.4221 22.1 20.7998 22.1C21.1776 22.1 21.4887 21.9777 21.7332 21.7333C21.9776 21.4888 22.0998 21.1777 22.0998 20.8C22.0998 20.4222 21.9776 20.1111 21.7332 19.8666L17.8665 16L21.7332 12.1333C21.9776 11.8888 22.0998 11.5777 22.0998 11.2C22.0998 10.8222 21.9776 10.5111 21.7332 10.2666C21.4887 10.0222 21.1776 9.89996 20.7998 9.89996C20.4221 9.89996 20.111 10.0222 19.8665 10.2666L15.9998 14.1333L12.1332 10.2666C11.8887 10.0222 11.5776 9.89996 11.1998 9.89996C10.8221 9.89996 10.511 10.0222 10.2665 10.2666C10.0221 10.5111 9.89984 10.8222 9.89984 11.2C9.89984 11.5777 10.0221 11.8888 10.2665 12.1333L14.1332 16L10.2665 19.8666C10.0221 20.1111 9.89984 20.4222 9.89984 20.8C9.89984 21.1777 10.0221 21.4888 10.2665 21.7333C10.511 21.9777 10.8221 22.1 11.1998 22.1C11.5776 22.1 11.8887 21.9777 12.1332 21.7333L15.9998 17.8666ZM15.9998 29.3333C14.1554 29.3333 12.4221 28.9831 10.7998 28.2826C9.17762 27.5822 7.76651 26.6324 6.56651 25.4333C5.36651 24.2342 4.41673 22.8231 3.71717 21.2C3.01762 19.5768 2.66739 17.8435 2.66651 16C2.66562 14.1564 3.01584 12.4231 3.71717 10.8C4.41851 9.17685 5.36828 7.76574 6.56651 6.56663C7.76473 5.36751 9.17584 4.41774 10.7998 3.71729C12.4238 3.01685 14.1572 2.66663 15.9998 2.66663C17.8425 2.66663 19.5758 3.01685 21.1998 3.71729C22.8238 4.41774 24.235 5.36751 25.4332 6.56663C26.6314 7.76574 27.5816 9.17685 28.2838 10.8C28.9861 12.4231 29.3358 14.1564 29.3332 16C29.3305 17.8435 28.9803 19.5768 28.2825 21.2C27.5847 22.8231 26.635 24.2342 25.4332 25.4333C24.2314 26.6324 22.8203 27.5826 21.1998 28.284C19.5794 28.9853 17.8461 29.3351 15.9998 29.3333Z" fill="#1b3a62"/>
</svg>
