<svg width="19" height="19" viewBox="0 0 19 19" fill="none" xmlns="http://www.w3.org/2000/svg">
<path d="M16.4091 0H2.59091C1.90376 0 1.24475 0.286001 0.75886 0.795087C0.27297 1.30417 0 1.99464 0 2.7146V11.7632C0 12.4832 0.27297 13.1737 0.75886 13.6828C1.24475 14.1918 1.90376 14.4778 2.59091 14.4778H3.45455V18.0973C3.45493 18.2661 3.50039 18.4315 3.58578 18.5746C3.67117 18.7178 3.79308 18.8331 3.93774 18.9075C4.0824 18.9818 4.24403 19.0123 4.40436 18.9955C4.56468 18.9786 4.71732 18.9151 4.845 18.8121L10.165 14.4778H16.4091C17.0962 14.4778 17.7553 14.1918 18.2411 13.6828C18.727 13.1737 19 12.4832 19 11.7632V2.7146C19 1.99464 18.727 1.30417 18.2411 0.795087C17.7553 0.286001 17.0962 0 16.4091 0ZM17.2727 11.7632C17.2727 12.0032 17.1817 12.2334 17.0198 12.4031C16.8578 12.5728 16.6381 12.6681 16.4091 12.6681H9.87136C9.68054 12.6687 9.49529 12.7356 9.34455 12.8581L5.18182 16.2876V13.573C5.18182 13.333 5.09083 13.1028 4.92886 12.9331C4.7669 12.7634 4.54723 12.6681 4.31818 12.6681H2.59091C2.36186 12.6681 2.14219 12.5728 1.98023 12.4031C1.81826 12.2334 1.72727 12.0032 1.72727 11.7632V2.7146C1.72727 2.47461 1.81826 2.24445 1.98023 2.07476C2.14219 1.90506 2.36186 1.80973 2.59091 1.80973H16.4091C16.6381 1.80973 16.8578 1.90506 17.0198 2.07476C17.1817 2.24445 17.2727 2.47461 17.2727 2.7146V11.7632Z" fill="black"/>
<path d="M5.18151 6.33414H10.3633C10.5924 6.33414 10.812 6.23881 10.974 6.06912C11.136 5.89942 11.227 5.66926 11.227 5.42928C11.227 5.18929 11.136 4.95914 10.974 4.78944C10.812 4.61975 10.5924 4.52441 10.3633 4.52441H5.18151C4.95246 4.52441 4.73279 4.61975 4.57082 4.78944C4.40886 4.95914 4.31787 5.18929 4.31787 5.42928C4.31787 5.66926 4.40886 5.89942 4.57082 6.06912C4.73279 6.23881 4.95246 6.33414 5.18151 6.33414ZM13.8179 8.14387H5.18151C4.95246 8.14387 4.73279 8.23921 4.57082 8.4089C4.40886 8.5786 4.31787 8.80875 4.31787 9.04874C4.31787 9.28873 4.40886 9.51888 4.57082 9.68858C4.73279 9.85827 4.95246 9.95361 5.18151 9.95361H13.8179C14.0469 9.95361 14.2666 9.85827 14.4286 9.68858C14.5905 9.51888 14.6815 9.28873 14.6815 9.04874C14.6815 8.80875 14.5905 8.5786 14.4286 8.4089C14.2666 8.23921 14.0469 8.14387 13.8179 8.14387Z" fill="black"/>
</svg>
