<svg width="32" height="32" viewBox="0 0 32 32" fill="none" xmlns="http://www.w3.org/2000/svg">
<circle cx="16" cy="16" r="16" fill="#1b3a62"/>
<path d="M16.333 6.83325C11.6108 6.83325 7.83301 10.611 7.83301 15.3333C7.83301 17.0333 8.39967 18.7333 9.34412 20.1499L8.0219 22.4166C7.83301 22.6999 7.83301 23.0777 8.0219 23.361C8.21079 23.6444 8.39967 23.8333 8.77745 23.8333H16.333C21.0552 23.8333 24.833 20.0555 24.833 15.3333C24.833 10.611 21.0552 6.83325 16.333 6.83325ZM16.333 21.9444H10.4775L11.3275 20.5277C11.5163 20.1499 11.5163 19.7721 11.233 19.4888C10.2886 18.3555 9.7219 16.8444 9.7219 15.3333C9.7219 11.6499 12.6497 8.72214 16.333 8.72214C20.0163 8.72214 22.9441 11.6499 22.9441 15.3333C22.9441 19.0166 20.0163 21.9444 16.333 21.9444Z" fill="#F4ECE0"/>
<path d="M13.5001 14.3889H16.3334C16.9001 14.3889 17.2779 14.0111 17.2779 13.4444C17.2779 12.8778 16.9001 12.5 16.3334 12.5H13.5001C12.9334 12.5 12.5557 12.8778 12.5557 13.4444C12.5557 14.0111 12.9334 14.3889 13.5001 14.3889ZM19.1668 16.2778H13.5001C12.9334 16.2778 12.5557 16.6556 12.5557 17.2222C12.5557 17.7889 12.9334 18.1667 13.5001 18.1667H19.1668C19.7334 18.1667 20.1112 17.7889 20.1112 17.2222C20.1112 16.6556 19.7334 16.2778 19.1668 16.2778Z" fill="#F4ECE0"/>
</svg>
