<svg width="20" height="16" viewBox="0 0 20 16" fill="none" xmlns="http://www.w3.org/2000/svg">
<path d="M1.39138 15.5652C1.31312 15.5652 1.20877 15.5652 1.13051 15.5392C0.660944 15.4087 0.3479 15.0174 0.3479 14.5218C0.3479 14.3652 0.373987 10.3739 3.3479 7.40003C5.25225 5.49568 7.86094 4.45221 11.1479 4.2696V1.47829C11.1479 1.0609 11.4088 0.669597 11.8001 0.513075C12.1914 0.356553 12.6349 0.434815 12.9479 0.747858L19.3653 7.2696C19.7566 7.68699 19.7566 8.33916 19.3653 8.73047L12.9479 15.2522C12.6609 15.5652 12.1914 15.6435 11.8001 15.487C11.4088 15.3305 11.1479 14.9392 11.1479 14.5218V11.7044C9.06095 11.6522 4.10442 11.8609 2.30442 15.0435C2.12181 15.3566 1.7566 15.5652 1.39138 15.5652ZM10.574 9.59134C11.5392 9.59134 12.2175 9.6696 12.2957 9.6696C12.8175 9.72177 13.2349 10.1652 13.2349 10.7131V11.9652L17.1479 8.00003L13.2349 4.03481V5.28699C13.2349 5.8609 12.7653 6.33047 12.1914 6.33047C8.98268 6.33047 6.50442 7.19134 4.83486 8.88699C4.07834 9.64351 3.5566 10.5044 3.19138 11.3131C5.61747 9.85221 8.69573 9.59134 10.574 9.59134Z" fill="black"/>
</svg>
