<svg width="24" height="24" viewBox="0 0 24 24" fill="none" xmlns="http://www.w3.org/2000/svg">
<path d="M12 2.0459C6.48339 2.0459 2.01196 6.51733 2.01196 12.0339C2.01196 17.5505 6.48339 22.0219 12 22.0219C17.5165 22.0219 21.988 17.5505 21.988 12.0339C21.988 6.51733 17.5165 2.0459 12 2.0459ZM17.1937 12.8329H12.799V17.2277C12.799 17.4396 12.7148 17.6428 12.565 17.7927C12.4151 17.9425 12.2119 18.0267 12 18.0267C11.788 18.0267 11.5848 17.9425 11.435 17.7927C11.2851 17.6428 11.2009 17.4396 11.2009 17.2277V12.8329H6.8062C6.59429 12.8329 6.39105 12.7488 6.2412 12.5989C6.09135 12.4491 6.00716 12.2458 6.00716 12.0339C6.00716 11.822 6.09135 11.6187 6.2412 11.4689C6.39105 11.319 6.59429 11.2349 6.8062 11.2349H11.2009V6.84014C11.2009 6.62822 11.2851 6.42498 11.435 6.27513C11.5848 6.12528 11.788 6.0411 12 6.0411C12.2119 6.0411 12.4151 6.12528 12.565 6.27513C12.7148 6.42498 12.799 6.62822 12.799 6.84014V11.2349H17.1937C17.4056 11.2349 17.6089 11.319 17.7587 11.4689C17.9086 11.6187 17.9928 11.822 17.9928 12.0339C17.9928 12.2458 17.9086 12.4491 17.7587 12.5989C17.6089 12.7488 17.4056 12.8329 17.1937 12.8329Z" fill="#F4ECE0"/>
</svg>
