<svg width="28" height="28" viewBox="0 0 28 28" fill="none" xmlns="http://www.w3.org/2000/svg">
<g clip-path="url(#clip0_3996_628)">
<path d="M14 0.875C11.4041 0.875 8.86654 1.64477 6.70815 3.08696C4.54975 4.52915 2.86749 6.579 1.87409 8.97728C0.880687 11.3756 0.620768 14.0146 1.1272 16.5606C1.63363 19.1066 2.88367 21.4452 4.71923 23.2808C6.55479 25.1163 8.89345 26.3664 11.4394 26.8728C13.9854 27.3792 16.6244 27.1193 19.0227 26.1259C21.421 25.1325 23.4709 23.4503 24.913 21.2919C26.3552 19.1335 27.125 16.5959 27.125 14C27.1211 10.5202 25.737 7.18413 23.2764 4.72357C20.8159 2.26301 17.4798 0.878937 14 0.875ZM19.2588 18.6403C19.3002 18.6807 19.3333 18.729 19.3559 18.7823C19.3786 18.8356 19.3905 18.8929 19.3908 18.9508C19.3912 19.0087 19.3801 19.0661 19.3581 19.1197C19.3361 19.1733 19.3037 19.222 19.2627 19.2629C19.2217 19.3039 19.1731 19.3363 19.1195 19.3583C19.0659 19.3803 19.0085 19.3914 18.9506 19.391C18.8927 19.3907 18.8354 19.3788 18.7821 19.3561C18.7288 19.3335 18.6805 19.3004 18.6401 19.259L14 14.6187L9.35971 19.259C9.31943 19.3011 9.27114 19.3348 9.21767 19.358C9.1642 19.3812 9.10663 19.3935 9.04835 19.3941C8.99006 19.3948 8.93224 19.3838 8.87826 19.3618C8.82429 19.3397 8.77526 19.3072 8.73405 19.266C8.69284 19.2247 8.66029 19.1757 8.6383 19.1217C8.61631 19.0677 8.60532 19.0099 8.606 18.9516C8.60667 18.8933 8.61898 18.8358 8.64221 18.7823C8.66543 18.7288 8.69911 18.6806 8.74126 18.6403L13.3813 14L8.74126 9.3597C8.66319 9.2769 8.62046 9.16693 8.62214 9.05314C8.62382 8.93935 8.66976 8.8307 8.75023 8.75023C8.8307 8.66976 8.93936 8.62381 9.05315 8.62213C9.16694 8.62046 9.2769 8.66319 9.35971 8.74125L14 13.3813L18.6403 8.74125C18.6807 8.69978 18.729 8.66675 18.7823 8.64408C18.8356 8.6214 18.8929 8.60954 18.9508 8.60917C19.0087 8.60881 19.0661 8.61994 19.1197 8.64194C19.1733 8.66393 19.222 8.69635 19.2629 8.7373C19.3039 8.77826 19.3363 8.82694 19.3583 8.88052C19.3803 8.9341 19.3914 8.99152 19.3911 9.04944C19.3907 9.10735 19.3788 9.16462 19.3562 9.21792C19.3335 9.27122 19.3004 9.31949 19.259 9.35992L14.6187 14L19.2588 18.6403Z" fill="#1b3a62"/>
</g>
<defs>
<clipPath id="clip0_3996_628">
<rect width="28" height="28" fill="white"/>
</clipPath>
</defs>
</svg>
