<svg width="40" height="41" viewBox="0 0 40 41" fill="none" xmlns="http://www.w3.org/2000/svg">
<g filter="url(#filter0_d_4044_731)">
<path d="M20 0C15.7565 0 11.6869 1.68726 8.68629 4.6906C5.68571 7.69394 4 11.7673 4 16.0147C4 20.2621 5.68571 24.3355 8.68629 27.3388C11.6869 30.3421 15.7565 32.0294 20 32.0294C24.2435 32.0294 28.3131 30.3421 31.3137 27.3388C34.3143 24.3355 36 20.2621 36 16.0147C36 11.7673 34.3143 7.69394 31.3137 4.6906C28.3131 1.68726 24.2435 0 20 0ZM26.704 20.4187C27.002 20.7188 27.1693 21.1247 27.1693 21.5478C27.1693 21.9709 27.002 22.3768 26.704 22.6768C26.4086 22.9786 26.006 23.1512 25.584 23.1573C25.3723 23.1564 25.1629 23.1135 24.9679 23.031C24.7729 22.9485 24.5962 22.8281 24.448 22.6768L20 18.2728L15.552 22.7249C15.4038 22.8762 15.2271 22.9966 15.0321 23.079C14.8371 23.1615 14.6277 23.2044 14.416 23.2053C13.994 23.1993 13.5914 23.0266 13.296 22.7249C12.998 22.4248 12.8307 22.0189 12.8307 21.5958C12.8307 21.1727 12.998 20.7668 13.296 20.4668L17.744 16.0147L13.296 11.5626C13.0339 11.2563 12.8969 10.8622 12.9125 10.4591C12.928 10.0561 13.0949 9.67373 13.3799 9.38852C13.6649 9.1033 14.0468 8.93622 14.4495 8.92065C14.8522 8.90508 15.2459 9.04218 15.552 9.30454L20 13.7566L24.448 9.30454C24.7541 9.04218 25.1478 8.90508 25.5505 8.92065C25.9532 8.93622 26.3352 9.1033 26.6201 9.38852C26.9051 9.67373 27.072 10.0561 27.0875 10.4591C27.1031 10.8622 26.9661 11.2563 26.704 11.5626L22.256 16.0147L26.704 20.4187Z" fill="#F4ECE0"/>
</g>
<defs>
<filter id="filter0_d_4044_731" x="0" y="0" width="40" height="40.0293" filterUnits="userSpaceOnUse" color-interpolation-filters="sRGB">
<feFlood flood-opacity="0" result="BackgroundImageFix"/>
<feColorMatrix in="SourceAlpha" type="matrix" values="0 0 0 0 0 0 0 0 0 0 0 0 0 0 0 0 0 0 127 0" result="hardAlpha"/>
<feOffset dy="4"/>
<feGaussianBlur stdDeviation="2"/>
<feComposite in2="hardAlpha" operator="out"/>
<feColorMatrix type="matrix" values="0 0 0 0 0 0 0 0 0 0 0 0 0 0 0 0 0 0 0.15 0"/>
<feBlend mode="normal" in2="BackgroundImageFix" result="effect1_dropShadow_4044_731"/>
<feBlend mode="normal" in="SourceGraphic" in2="effect1_dropShadow_4044_731" result="shape"/>
</filter>
</defs>
</svg>
