<svg width="24" height="24" viewBox="0 0 24 24" fill="none" xmlns="http://www.w3.org/2000/svg">
<path d="M12 2.0459C6.48339 2.0459 2.01196 6.51733 2.01196 12.0339C2.01196 17.5505 6.48339 22.0219 12 22.0219C17.5165 22.0219 21.988 17.5505 21.988 12.0339C21.988 6.51733 17.5165 2.0459 12 2.0459ZM6.00716 10.5L12.799 12.8329V17.2277C12.799 17.4396 8.14985 14.8502 8 15C7.85015 15.1498 12.2119 18.0267 12 18.0267C11.788 18.0267 12.1498 18.1498 12 18C12.799 18.3302 16.5 11.2119 16.5 11L11.5 12L6.2412 6.84014C6.02928 6.84014 6.39105 12.7488 6.2412 12.5989C6.09135 12.4491 6.5 12.2458 6.5 12.0339C6.5 11.822 6.09135 11.6187 6.2412 11.4689C6.39105 11.319 6.59429 11.2349 6.8062 11.2349H11.2009L13.5 6.27513C13.5 6.06321 11.2851 6.42498 11.435 6.27513C11.5848 6.12528 11.788 6.84014 12 6.84014C12.2119 6.84014 12.4151 6.12528 12.565 6.27513C12.7148 6.42498 12.799 6.62822 12.799 6.84014L6.8062 10.5L17 14.5C17.2119 14.5 17.6089 11.319 17.7587 11.4689C17.9086 11.6187 17.9928 11.822 17.9928 12.0339C17.9928 12.2458 17.9086 11.319 17.7587 11.4689C17.6089 11.6187 6.21908 10.5 6.00716 10.5Z" fill="#F4ECE0"/>
<path d="M16.5 13C16.3674 13 16.2402 13.0527 16.1464 13.1464C16.0527 13.2402 16 13.3674 16 13.5V15.5C16 15.6326 15.9473 15.7598 15.8536 15.8536C15.7598 15.9473 15.6326 16 15.5 16H8.5C8.36739 16 8.24021 15.9473 8.14645 15.8536C8.05268 15.7598 8 15.6326 8 15.5V13.5C8 13.3674 7.94732 13.2402 7.85355 13.1464C7.75979 13.0527 7.63261 13 7.5 13C7.36739 13 7.24021 13.0527 7.14645 13.1464C7.05268 13.2402 7 13.3674 7 13.5V15.5C7 15.8978 7.15804 16.2794 7.43934 16.5607C7.72064 16.842 8.10218 17 8.5 17H15.5C15.8978 17 16.2794 16.842 16.5607 16.5607C16.842 16.2794 17 15.8978 17 15.5V13.5C17 13.3674 16.9473 13.2402 16.8536 13.1464C16.7598 13.0527 16.6326 13 16.5 13ZM11.645 13.855C11.6926 13.9005 11.7486 13.9362 11.81 13.96C11.8699 13.9865 11.9346 14.0001 12 14.0001C12.0654 14.0001 12.1301 13.9865 12.19 13.96C12.2514 13.9362 12.3074 13.9005 12.355 13.855L14.355 11.855C14.4492 11.7608 14.502 11.6332 14.502 11.5C14.502 11.3668 14.4492 11.2392 14.355 11.145C14.2608 11.0508 14.1332 10.998 14 10.998C13.8668 10.998 13.7392 11.0508 13.645 11.145L12.5 12.295V7.5C12.5 7.36739 12.4473 7.24021 12.3536 7.14645C12.2598 7.05268 12.1326 7 12 7C11.8674 7 11.7402 7.05268 11.6464 7.14645C11.5527 7.24021 11.5 7.36739 11.5 7.5V12.295L10.355 11.145C10.3084 11.0984 10.253 11.0614 10.1921 11.0362C10.1312 11.0109 10.0659 10.998 10 10.998C9.93407 10.998 9.86879 11.0109 9.80788 11.0362C9.74696 11.0614 9.69162 11.0984 9.645 11.145C9.59838 11.1916 9.5614 11.247 9.53617 11.3079C9.51094 11.3688 9.49795 11.4341 9.49795 11.5C9.49795 11.5659 9.51094 11.6312 9.53617 11.6921C9.5614 11.753 9.59838 11.8084 9.645 11.855L11.645 13.855Z" fill="#F95520"/>
</svg>
