<svg width="24" height="24" viewBox="0 0 24 24" fill="none" xmlns="http://www.w3.org/2000/svg">
<path d="M12 2.0459C6.48339 2.0459 2.01196 6.51733 2.01196 12.0339C2.01196 17.5505 6.48339 22.0219 12 22.0219C17.5165 22.0219 21.988 17.5505 21.988 12.0339C21.988 6.51733 17.5165 2.0459 12 2.0459ZM6.00716 10.5L12.799 12.8329V17.2277C12.799 17.4396 8.14985 14.8502 8 15C7.85015 15.1498 12.2119 18.0267 12 18.0267C11.788 18.0267 12.1498 18.1498 12 18C12.799 18.3302 16.5 11.2119 16.5 11L11.5 12L6.2412 6.84014C6.02928 6.84014 6.39105 12.7488 6.2412 12.5989C6.09135 12.4491 6.5 12.2458 6.5 12.0339C6.5 11.822 6.09135 11.6187 6.2412 11.4689C6.39105 11.319 6.59429 11.2349 6.8062 11.2349H11.2009L13.5 6.27513C13.5 6.06321 11.2851 6.42498 11.435 6.27513C11.5848 6.12528 11.788 6.84014 12 6.84014C12.2119 6.84014 12.4151 6.12528 12.565 6.27513C12.7148 6.42498 12.799 6.62822 12.799 6.84014L6.8062 10.5L17 14.5C17.2119 14.5 17.6089 11.319 17.7587 11.4689C17.9086 11.6187 17.9928 11.822 17.9928 12.0339C17.9928 12.2458 17.9086 11.319 17.7587 11.4689C17.6089 11.6187 6.21908 10.5 6.00716 10.5Z" fill="#F4ECE0"/>
<g clip-path="url(#clip0_4004_635)">
<path d="M16.9843 11.4656C16.8223 11.6851 16.5838 11.8356 16.316 11.8874C16.0482 11.9391 15.7707 11.8883 15.5387 11.745C15.4112 11.6606 15.4112 11.6625 15.2705 11.805C14.5824 12.5025 14.393 12.69 13.8193 13.2581L13.5624 13.515C13.5217 13.5524 13.5147 13.5511 13.5455 13.5937C14.2768 14.6944 13.8118 15.9281 13.1312 16.7156C12.7853 17.0874 12.426 17.0935 12.0624 16.7588C11.4302 16.1246 10.964 15.6726 10.2774 14.9663C10.2119 14.9092 10.2401 14.8986 10.1518 14.9663C9.61178 15.4088 9.07053 15.8488 8.52803 16.2863C8.20178 16.5506 7.87428 16.8156 7.54553 17.0813C7.44449 17.1785 7.31234 17.237 7.1724 17.2463C7.11778 17.2452 7.06391 17.2332 7.014 17.211C6.96408 17.1888 6.91913 17.1568 6.88178 17.1169C6.61928 16.86 6.81428 16.5919 6.89865 16.4775C7.57316 15.5533 8.23088 14.6325 8.9199 13.71C8.9698 13.6404 8.96168 13.6577 8.90115 13.5938C8.2789 12.9769 7.84735 12.5442 7.28865 11.9831C6.8929 11.5908 6.91563 11.1943 7.3374 10.8281C8.12865 10.1381 9.48428 9.77813 10.433 10.47C10.4405 10.4756 10.4462 10.4794 10.4518 10.4831C11.269 9.65744 11.6182 9.30865 12.3324 8.60063C12.1608 8.36503 12.0841 8.07348 12.1176 7.78394C12.1511 7.4944 12.2924 7.22807 12.5133 7.0379C12.7341 6.84772 13.0185 6.74762 13.3098 6.7575C13.6011 6.76738 13.878 6.88652 14.0855 7.09122C15.2593 8.25374 15.7618 8.75811 16.9224 9.92812C17.1213 10.1312 17.2377 10.4009 17.2491 10.685C17.2606 10.969 17.1662 11.2472 16.9843 11.4656Z" fill="#F95520"/>
</g>
<defs>
<clipPath id="clip0_4004_635">
<rect width="12" height="12" fill="white" transform="translate(6 6)"/>
</clipPath>
</defs>
</svg>
