<?xml version="1.0" standalone="no"?>
<!DOCTYPE svg PUBLIC "-//W3C//DTD SVG 20010904//EN"
 "http://www.w3.org/TR/2001/REC-SVG-20010904/DTD/svg10.dtd">
<svg version="1.0" xmlns="http://www.w3.org/2000/svg"
 width="827.000000pt" height="828.000000pt" viewBox="0 0 827.000000 828.000000"
 preserveAspectRatio="xMidYMid meet">

<g transform="translate(0.000000,828.000000) scale(0.100000,-0.100000)"
fill="#000000" stroke="none">
<path d="M3905 8259 c-601 -42 -1082 -169 -1600 -424 -404 -199 -725 -428
-1058 -754 -255 -250 -428 -466 -623 -778 -319 -510 -509 -1053 -594 -1698
-17 -129 -24 -631 -11 -790 33 -395 107 -726 241 -1080 87 -229 89 -234 169
-395 252 -506 629 -989 1046 -1341 358 -301 737 -530 1145 -692 431 -171 859
-264 1325 -287 1016 -51 2035 294 2820 956 864 728 1398 1756 1486 2858 21
273 2 734 -42 991 -130 768 -495 1509 -1031 2094 -340 372 -773 701 -1205 915
-501 249 -985 378 -1573 422 -208 15 -319 16 -495 3z m535 -119 c499 -35 1039
-184 1490 -410 461 -231 847 -527 1196 -915 497 -553 838 -1250 964 -1965 69
-398 78 -857 24 -1255 -18 -135 -94 -480 -133 -606 -147 -478 -388 -931 -714
-1344 -76 -96 -216 -249 -223 -243 -5 5 -103 197 -260 509 -112 222 -144 294
-139 311 4 13 44 73 89 133 117 156 167 239 251 410 175 358 253 599 302 925
22 155 26 650 5 795 -37 256 -101 505 -179 695 -180 436 -386 751 -693 1061
-554 559 -1285 897 -2054 951 -638 44 -1281 -102 -1820 -412 -510 -294 -910
-696 -1203 -1209 -144 -252 -248 -521 -322 -836 -79 -336 -91 -715 -35 -1094
66 -445 271 -930 546 -1288 49 -64 78 -110 78 -126 0 -20 -378 -798 -397 -817
-3 -3 -17 9 -31 26 -15 17 -67 78 -117 136 -111 130 -291 378 -375 518 -96
159 -232 436 -310 630 -77 193 -166 514 -205 737 -75 438 -68 1029 16 1463
119 614 413 1238 824 1750 95 120 119 146 294 320 449 449 984 774 1591 968
481 154 1022 218 1540 182z m-426 -1077 c-19 -46 -98 -208 -454 -928 -606
-1228 -631 -1275 -684 -1291 -40 -12 -292 -158 -401 -232 -178 -122 -378 -287
-524 -433 -117 -117 -312 -335 -361 -404 -25 -35 -79 -110 -120 -167 -116
-160 -153 -216 -209 -310 -29 -49 -58 -88 -66 -88 -7 0 -18 19 -24 43 -5 23
-21 87 -35 142 -110 438 -113 933 -10 1370 106 444 335 890 642 1246 471 549
1060 893 1772 1034 122 25 344 53 422 54 l67 1 -15 -37z m564 7 c181 -27 265
-45 427 -91 519 -148 993 -438 1390 -849 400 -413 689 -980 780 -1525 84 -506
54 -922 -101 -1404 -3 -9 -19 8 -41 45 -66 111 -205 319 -276 414 -39 52 -91
123 -116 156 -116 155 -427 468 -641 645 -143 118 -380 269 -590 376 l-95 48
-272 545 c-395 793 -758 1526 -789 1595 -16 33 -30 64 -32 69 -7 13 201 -1
356 -24z m-235 -462 c118 -238 376 -757 573 -1153 198 -396 383 -772 413 -835
30 -63 185 -378 345 -700 264 -530 366 -740 366 -755 0 -2 -867 -5 -1926 -5
-1516 1 -1924 3 -1916 13 20 26 887 1763 1389 2787 405 823 532 1080 537 1080
3 0 101 -195 219 -432z m-1588 -2100 c-57 -117 -231 -467 -387 -778 l-283
-565 -392 -1 c-216 -1 -393 2 -393 6 0 4 10 22 23 41 12 19 51 79 86 134 279
437 606 796 983 1081 97 73 196 145 220 160 50 33 230 132 240 133 3 1 -40
-95 -97 -211z m2708 186 c372 -188 836 -591 1143 -994 123 -161 354 -501 354
-521 0 -10 -677 -23 -741 -14 -32 5 -60 15 -69 25 -9 10 -42 76 -75 147 -33
70 -134 277 -226 458 -169 335 -449 908 -449 919 0 10 8 7 63 -20z m-3454
-1681 c-37 -87 -320 -648 -334 -662 -7 -7 -17 -11 -23 -7 -10 6 -148 212 -195
291 -41 70 -162 312 -187 374 l-20 51 390 0 389 0 -20 -47z m4108 17 c146
-290 383 -778 383 -788 0 -12 -238 -248 -340 -338 -175 -153 -502 -360 -725
-458 -306 -134 -702 -236 -1025 -266 -421 -38 -927 27 -1305 168 -377 140
-618 274 -908 505 -109 86 -287 256 -379 359 l-60 68 164 327 c90 181 175 353
188 383 14 30 29 58 35 62 5 4 899 7 1985 5 l1974 -2 13 -25z m893 22 c0 -12
-64 -159 -100 -232 -44 -87 -88 -162 -178 -300 -90 -139 -146 -202 -161 -187
-6 6 -11 15 -11 19 0 5 -67 142 -148 306 -81 163 -156 317 -167 342 -10 25
-20 48 -23 53 -2 4 174 7 392 7 218 0 396 -4 396 -8z m-4857 -1285 c171 -133
279 -206 427 -287 383 -211 779 -339 1215 -391 140 -17 545 -18 690 -1 317 36
654 127 941 252 365 159 676 368 969 650 82 80 152 149 154 153 5 12 411 -804
411 -826 0 -21 -39 -61 -175 -182 -570 -506 -1275 -838 -2040 -960 -381 -61
-854 -59 -1252 5 -466 75 -930 240 -1339 476 -134 77 -362 228 -470 312 -82
64 -319 276 -372 334 l-23 25 211 425 210 426 153 -152 c83 -83 214 -200 290
-259z"/>
</g>
</svg>
